<svg xmlns="http://www.w3.org/2000/svg" viewBox="0 0 64 64" width="64" height="64">
  <!-- Outer record -->
  <circle cx="32" cy="32" r="30" fill="#1a1a1a"/>
  
  <!-- Grooves -->
  <circle cx="32" cy="32" r="28" fill="none" stroke="#2a2a2a" stroke-width="0.5"/>
  <circle cx="32" cy="32" r="26" fill="none" stroke="#2a2a2a" stroke-width="0.5"/>
  <circle cx="32" cy="32" r="24" fill="none" stroke="#2a2a2a" stroke-width="0.5"/>
  <circle cx="32" cy="32" r="22" fill="none" stroke="#2a2a2a" stroke-width="0.5"/>
  <circle cx="32" cy="32" r="20" fill="none" stroke="#2a2a2a" stroke-width="0.5"/>
  
  <!-- Label area -->
  <circle cx="32" cy="32" r="10" fill="#f5f5f5"/>
  
  <!-- Center hole -->
  <circle cx="32" cy="32" r="3" fill="#0a0a0a"/>
  
  <!-- White waveform -->
  <path d="M 12 32 L 14 28 L 16 36 L 18 26 L 20 38 L 22 28 L 24 36 L 26 30 L 28 34 L 30 27 L 32 37 L 34 27 L 36 34 L 38 30 L 40 36 L 42 28 L 44 38 L 46 26 L 48 36 L 50 28 L 52 32" 
        fill="none" 
        stroke="white" 
        stroke-width="2" 
        stroke-linecap="round" 
        stroke-linejoin="round"/>
</svg>