<svg xmlns="http://www.w3.org/2000/svg" viewBox="0 0 64 64" width="64" height="64">
  <!-- Outer record -->
  <circle cx="32" cy="32" r="30" fill="#1a1a1a"/>
  
  <!-- Grooves -->
  <circle cx="32" cy="32" r="28" fill="none" stroke="#2a2a2a" stroke-width="0.5"/>
  <circle cx="32" cy="32" r="26" fill="none" stroke="#2a2a2a" stroke-width="0.5"/>
  <circle cx="32" cy="32" r="24" fill="none" stroke="#2a2a2a" stroke-width="0.5"/>
  <circle cx="32" cy="32" r="22" fill="none" stroke="#2a2a2a" stroke-width="0.5"/>
  <circle cx="32" cy="32" r="20" fill="none" stroke="#2a2a2a" stroke-width="0.5"/>
  
  <!-- Label area -->
  <circle cx="32" cy="32" r="10" fill="#dc2626"/>
  
  <!-- Center hole -->
  <circle cx="32" cy="32" r="3" fill="#0a0a0a"/>
  
  <!-- White waveform -->
  <path d="M 12 32 L 14 32 L 14 20 L 16 20 L 16 44 L 18 44 L 18 32 L 20 32 L 20 24 L 22 24 L 22 40 L 24 40 L 24 32 L 26 32 L 26 28 L 28 28 L 28 36 L 30 36 L 30 32 L 34 32 L 34 36 L 36 36 L 36 28 L 38 28 L 38 32 L 40 32 L 40 40 L 42 40 L 42 24 L 44 24 L 44 32 L 46 32 L 46 44 L 48 44 L 48 20 L 50 20 L 50 32 L 52 32" 
        fill="none" 
        stroke="white" 
        stroke-width="1.5" 
        stroke-linecap="square" 
        stroke-linejoin="miter"/>

</svg>