<svg version="1.1" id="Layer_1" xmlns="http://www.w3.org/2000/svg" xmlns:xlink="http://www.w3.org/1999/xlink" x="0px" y="0px"
	 width="100%" viewBox="0 0 2954 2405" enable-background="new 0 0 2954 2405" xml:space="preserve">
<path fill="#FFFFFF" opacity="1.000000" stroke="none" 
	d="
M2956.000000,880.000000 
	C2956.000000,1389.999878 2956.000000,1898.999878 2956.000000,2408.000000 
	C1971.333618,2408.000000 986.667175,2408.000000 2.000601,2408.000000 
	C2.000401,1606.000366 2.000401,804.000793 2.000201,2.000924 
	C986.666077,2.000616 1971.332153,2.000616 2955.999023,2.000308 
	C2956.000000,294.333344 2956.000000,586.666687 2956.000000,880.000000 
M2633.846436,1182.714722 
	C2634.454590,1173.126343 2635.416748,1163.544678 2635.603271,1153.948120 
	C2636.120850,1127.333496 2633.601074,1100.958130 2628.359375,1074.859497 
	C2627.447998,1070.322144 2628.054443,1066.920898 2631.639893,1063.299683 
	C2638.636230,1056.233765 2645.333984,1048.750000 2651.278076,1040.784790 
	C2686.879883,993.075928 2693.172852,942.199890 2666.441406,888.329163 
	C2651.520752,858.260986 2635.759277,828.610962 2620.744873,798.588501 
	C2605.444580,767.994934 2590.595215,737.175964 2575.454834,706.265015 
	C2579.962158,699.626282 2584.179932,693.281250 2588.530518,687.028870 
	C2609.858643,656.378418 2619.732910,622.734863 2614.294434,585.410645 
	C2606.613037,532.696289 2577.562012,496.004852 2529.220703,474.481995 
	C2512.097656,466.858490 2493.809082,463.470886 2475.264648,462.923218 
	C2474.664795,461.512146 2474.242676,460.609833 2473.891602,459.680786 
	C2452.740967,403.721130 2433.207275,347.186218 2416.376465,289.793549 
	C2408.078857,261.497803 2401.892090,232.562683 2395.346191,203.781265 
	C2391.602783,187.321259 2389.639648,170.455353 2385.869385,154.002655 
	C2370.407227,86.526299 2310.307373,41.598480 2245.559082,43.917000 
	C2217.785400,44.911533 2192.218994,52.198780 2170.118652,68.603783 
	C2153.371338,81.035233 2138.208252,95.640129 2122.648682,109.620964 
	C2109.572021,121.370613 2096.940430,133.615479 2083.842285,145.893616 
	C2081.922852,144.674789 2080.304688,143.595749 2078.638428,142.597305 
	C2055.931152,128.990173 2031.416504,121.633102 2004.875488,121.272789 
	C1969.668213,120.794815 1938.280273,131.936600 1910.336548,152.923676 
	C1897.914673,162.253189 1886.073730,172.356384 1873.702393,182.323242 
	C1868.080322,178.235367 1862.542114,174.063477 1856.859253,170.098801 
	C1806.010742,134.624634 1750.507446,111.950294 1688.006104,107.886047 
	C1658.312012,105.955154 1629.681274,110.276649 1602.028076,120.766731 
	C1569.867676,132.966537 1542.430054,152.788010 1516.839233,175.350769 
	C1505.989136,184.917053 1495.281738,194.645065 1484.292358,204.494064 
	C1482.592285,202.583298 1481.424561,201.421143 1480.427246,200.127670 
	C1464.414062,179.359894 1444.243896,163.918030 1419.761963,154.703323 
	C1379.580078,139.579376 1340.264038,142.067230 1302.386841,162.578964 
	C1280.512207,174.424850 1262.840088,191.721634 1244.871948,208.462128 
	C1228.507690,223.708298 1228.857300,224.251587 1205.840454,224.046188 
	C1170.945923,223.734833 1138.040527,231.643677 1107.030762,247.489639 
	C1099.108765,251.537796 1091.460693,256.122070 1083.730957,260.435303 
	C1082.620605,259.869843 1081.590576,259.593994 1080.894897,258.954559 
	C1063.460815,242.930878 1044.451416,228.960251 1024.394653,216.476501 
	C964.290649,179.066559 899.405762,160.507996 828.163269,167.268494 
	C792.173584,170.683701 758.785400,181.757187 727.767639,200.273651 
	C693.800781,220.550629 665.140076,247.330185 636.847595,274.509155 
	C632.300354,278.877411 628.083679,280.482056 621.947388,279.926819 
	C597.838379,277.745239 573.710938,275.655182 549.550659,274.180908 
	C521.381531,272.462006 493.178192,271.236969 464.976532,270.133789 
	C426.818665,268.641174 388.835663,265.231659 351.058350,259.792816 
	C332.993866,257.192078 315.365326,253.262939 298.790070,244.518356 
	C278.236816,233.675110 255.654327,228.913498 232.432785,229.442383 
	C198.345108,230.218765 168.480942,242.615601 141.942307,263.941925 
	C115.925430,284.848969 92.235199,308.200867 69.174255,332.180817 
	C53.687836,348.284393 40.282009,366.065308 32.211361,387.318542 
	C15.370222,431.667999 19.459042,474.028595 44.825150,514.008667 
	C60.362679,538.497681 82.481598,556.337097 107.991066,569.168823 
	C137.540009,584.032593 161.230408,605.828613 182.000580,630.423706 
	C200.369415,652.175110 215.624847,676.571960 232.010361,699.972046 
	C236.701447,706.671265 240.542297,713.965881 244.812424,721.052917 
	C192.367340,771.669556 172.487930,830.195435 206.641846,896.998108 
	C238.876648,960.047119 295.073822,979.287781 363.502014,969.619263 
	C364.542236,971.823608 365.805664,974.111084 366.734650,976.527161 
	C384.958191,1023.922058 402.206818,1071.668945 415.695190,1120.650146 
	C419.993530,1136.259033 424.687714,1152.316650 425.207703,1168.298828 
	C426.513214,1208.426270 438.088837,1244.769165 460.547424,1277.610596 
	C488.534302,1318.536011 527.541748,1340.298828 577.341492,1341.195435 
	C612.629700,1341.830688 644.401367,1330.385254 671.044556,1307.650269 
	C698.083252,1284.577637 724.587219,1260.666138 749.363586,1235.212402 
	C775.647644,1208.209717 790.205383,1175.126343 790.428528,1136.596802 
	C790.470703,1129.313599 791.646545,1122.036987 792.299255,1114.757324 
	C794.273865,1116.032715 795.015503,1117.410645 795.578064,1118.858032 
	C804.349792,1141.425049 813.356323,1163.905518 821.783325,1186.600952 
	C831.039001,1211.528198 843.279541,1234.659546 862.964539,1252.833008 
	C873.365356,1262.435303 885.352783,1270.318848 896.732300,1279.061646 
	C900.625671,1307.916382 904.155273,1337.505005 908.696655,1366.937500 
	C915.692261,1412.275269 927.134644,1456.464478 943.905762,1499.279663 
	C959.783936,1539.814941 976.462891,1579.953125 997.541138,1618.115601 
	C1026.836914,1671.155762 1059.457520,1722.110352 1096.309937,1770.179932 
	C1120.333008,1801.515015 1145.530762,1831.996460 1171.204102,1862.003052 
	C1188.052246,1881.694824 1206.238159,1900.309570 1224.631592,1918.595215 
	C1250.575317,1944.387085 1277.276001,1969.417236 1303.626953,1994.800293 
	C1308.666382,1999.654785 1313.249268,2005.038940 1318.611450,2009.494263 
	C1368.609497,2051.034424 1434.646362,2053.833984 1488.644165,2021.131714 
	C1504.087891,2011.778564 1517.522827,1999.909058 1530.619873,1987.602661 
	C1539.510742,1979.248657 1548.554321,1971.057373 1557.558716,1962.766602 
	C1560.371704,1964.711670 1562.296265,1965.968750 1564.143311,1967.330688 
	C1600.307251,1993.995972 1637.698242,2018.833618 1676.534302,2041.407715 
	C1700.866333,2055.551025 1727.160645,2061.903076 1755.628052,2060.279053 
	C1787.139648,2058.480713 1814.664185,2047.227173 1838.041016,2026.772583 
	C1859.052612,2008.387573 1878.716309,1988.462158 1898.973877,1969.215454 
	C1901.588135,1966.731567 1904.198853,1964.244019 1906.517456,1962.037598 
	C1954.581787,1975.604004 1998.053955,1967.656738 2037.482300,1938.368042 
	C2048.613037,1930.099976 2059.193848,1921.091919 2070.454102,1912.081177 
	C2072.401611,1914.804321 2074.292969,1917.443359 2076.179199,1920.086304 
	C2091.353027,1941.349487 2108.536377,1960.490845 2131.009277,1974.503662 
	C2153.313477,1988.411499 2177.575439,1995.647217 2203.638916,1995.926758 
	C2224.773682,1996.153320 2245.273682,1991.921875 2264.275879,1982.159302 
	C2268.762451,1979.854126 2272.438477,1979.237793 2277.200195,1981.945557 
	C2299.360840,1994.546753 2323.268799,2000.125366 2348.816650,1999.366699 
	C2382.770020,1998.358521 2412.254639,1986.607544 2437.344727,1963.786987 
	C2445.195557,1956.646240 2453.096924,1949.542480 2460.625732,1942.069458 
	C2478.789307,1924.040283 2497.095947,1906.131958 2514.637695,1887.508667 
	C2523.179199,1878.440552 2530.137207,1867.880859 2538.190918,1857.508301 
	C2540.753418,1859.343628 2543.397461,1861.257080 2546.061279,1863.142944 
	C2573.180176,1882.343506 2599.734375,1902.414673 2627.586182,1920.486084 
	C2654.447021,1937.914795 2684.835449,1943.105713 2716.543945,1939.165527 
	C2744.007812,1935.752930 2767.947754,1924.054810 2789.414062,1906.840942 
	C2817.503906,1884.315063 2843.045654,1859.062256 2868.544434,1833.730835 
	C2890.215088,1812.202637 2904.148438,1786.812256 2908.603760,1756.469604 
	C2915.773682,1707.639526 2900.795898,1666.054565 2864.565674,1633.364014 
	C2838.478760,1609.826050 2810.436523,1588.378540 2782.563721,1566.911377 
	C2720.959229,1519.465576 2658.994385,1472.488403 2601.293945,1420.234497 
	C2591.982666,1411.802124 2583.085938,1402.911743 2574.876465,1395.072632 
	C2587.514893,1357.993530 2600.164062,1322.376343 2611.761475,1286.419800 
	C2622.458740,1253.253662 2630.403809,1219.375854 2633.846436,1182.714722 
z"/>
<path fill="#010101" opacity="1.000000" stroke="none" 
	d="
M2633.771729,1183.635864 
	C2630.403809,1219.375854 2622.458740,1253.253662 2611.761475,1286.419800 
	C2600.164062,1322.376343 2587.514893,1357.993530 2574.876465,1395.072632 
	C2583.085938,1402.911743 2591.982666,1411.802124 2601.293945,1420.234497 
	C2658.994385,1472.488403 2720.959229,1519.465576 2782.563721,1566.911377 
	C2810.436523,1588.378540 2838.478760,1609.826050 2864.565674,1633.364014 
	C2900.795898,1666.054565 2915.773682,1707.639526 2908.603760,1756.469604 
	C2904.148438,1786.812256 2890.215088,1812.202637 2868.544434,1833.730835 
	C2843.045654,1859.062256 2817.503906,1884.315063 2789.414062,1906.840942 
	C2767.947754,1924.054810 2744.007812,1935.752930 2716.543945,1939.165527 
	C2684.835449,1943.105713 2654.447021,1937.914795 2627.586182,1920.486084 
	C2599.734375,1902.414673 2573.180176,1882.343506 2546.061279,1863.142944 
	C2543.397461,1861.257080 2540.753418,1859.343628 2538.190918,1857.508301 
	C2530.137207,1867.880859 2523.179199,1878.440552 2514.637695,1887.508667 
	C2497.095947,1906.131958 2478.789307,1924.040283 2460.625732,1942.069458 
	C2453.096924,1949.542480 2445.195557,1956.646240 2437.344727,1963.786987 
	C2412.254639,1986.607544 2382.770020,1998.358521 2348.816650,1999.366699 
	C2323.268799,2000.125366 2299.360840,1994.546753 2277.200195,1981.945557 
	C2272.438477,1979.237793 2268.762451,1979.854126 2264.275879,1982.159302 
	C2245.273682,1991.921875 2224.773682,1996.153320 2203.638916,1995.926758 
	C2177.575439,1995.647217 2153.313477,1988.411499 2131.009277,1974.503662 
	C2108.536377,1960.490845 2091.353027,1941.349487 2076.179199,1920.086304 
	C2074.292969,1917.443359 2072.401611,1914.804321 2070.454102,1912.081177 
	C2059.193848,1921.091919 2048.613037,1930.099976 2037.482300,1938.368042 
	C1998.053955,1967.656738 1954.581787,1975.604004 1906.517456,1962.037598 
	C1904.198853,1964.244019 1901.588135,1966.731567 1898.973877,1969.215454 
	C1878.716309,1988.462158 1859.052612,2008.387573 1838.041016,2026.772583 
	C1814.664185,2047.227173 1787.139648,2058.480713 1755.628052,2060.279053 
	C1727.160645,2061.903076 1700.866333,2055.551025 1676.534302,2041.407715 
	C1637.698242,2018.833618 1600.307251,1993.995972 1564.143311,1967.330688 
	C1562.296265,1965.968750 1560.371704,1964.711670 1557.558716,1962.766602 
	C1548.554321,1971.057373 1539.510742,1979.248657 1530.619873,1987.602661 
	C1517.522827,1999.909058 1504.087891,2011.778564 1488.644165,2021.131714 
	C1434.646362,2053.833984 1368.609497,2051.034424 1318.611450,2009.494263 
	C1313.249268,2005.038940 1308.666382,1999.654785 1303.626953,1994.800293 
	C1277.276001,1969.417236 1250.575317,1944.387085 1224.631592,1918.595215 
	C1206.238159,1900.309570 1188.052246,1881.694824 1171.204102,1862.003052 
	C1145.530762,1831.996460 1120.333008,1801.515015 1096.309937,1770.179932 
	C1059.457520,1722.110352 1026.836914,1671.155762 997.541138,1618.115601 
	C976.462891,1579.953125 959.783936,1539.814941 943.905762,1499.279663 
	C927.134644,1456.464478 915.692261,1412.275269 908.696655,1366.937500 
	C904.155273,1337.505005 900.625671,1307.916382 896.732300,1279.061646 
	C885.352783,1270.318848 873.365356,1262.435303 862.964539,1252.833008 
	C843.279541,1234.659546 831.039001,1211.528198 821.783325,1186.600952 
	C813.356323,1163.905518 804.349792,1141.425049 795.578064,1118.858032 
	C795.015503,1117.410645 794.273865,1116.032715 792.299255,1114.757324 
	C791.646545,1122.036987 790.470703,1129.313599 790.428528,1136.596802 
	C790.205383,1175.126343 775.647644,1208.209717 749.363586,1235.212402 
	C724.587219,1260.666138 698.083252,1284.577637 671.044556,1307.650269 
	C644.401367,1330.385254 612.629700,1341.830688 577.341492,1341.195435 
	C527.541748,1340.298828 488.534302,1318.536011 460.547424,1277.610596 
	C438.088837,1244.769165 426.513214,1208.426270 425.207703,1168.298828 
	C424.687714,1152.316650 419.993530,1136.259033 415.695190,1120.650146 
	C402.206818,1071.668945 384.958191,1023.922058 366.734650,976.527161 
	C365.805664,974.111084 364.542236,971.823608 363.502014,969.619263 
	C295.073822,979.287781 238.876648,960.047119 206.641846,896.998108 
	C172.487930,830.195435 192.367340,771.669556 244.812424,721.052917 
	C240.542297,713.965881 236.701447,706.671265 232.010361,699.972046 
	C215.624847,676.571960 200.369415,652.175110 182.000580,630.423706 
	C161.230408,605.828613 137.540009,584.032593 107.991066,569.168823 
	C82.481598,556.337097 60.362679,538.497681 44.825150,514.008667 
	C19.459042,474.028595 15.370222,431.667999 32.211361,387.318542 
	C40.282009,366.065308 53.687836,348.284393 69.174255,332.180817 
	C92.235199,308.200867 115.925430,284.848969 141.942307,263.941925 
	C168.480942,242.615601 198.345108,230.218765 232.432785,229.442383 
	C255.654327,228.913498 278.236816,233.675110 298.790070,244.518356 
	C315.365326,253.262939 332.993866,257.192078 351.058350,259.792816 
	C388.835663,265.231659 426.818665,268.641174 464.976532,270.133789 
	C493.178192,271.236969 521.381531,272.462006 549.550659,274.180908 
	C573.710938,275.655182 597.838379,277.745239 621.947388,279.926819 
	C628.083679,280.482056 632.300354,278.877411 636.847595,274.509155 
	C665.140076,247.330185 693.800781,220.550629 727.767639,200.273651 
	C758.785400,181.757187 792.173584,170.683701 828.163269,167.268494 
	C899.405762,160.507996 964.290649,179.066559 1024.394653,216.476501 
	C1044.451416,228.960251 1063.460815,242.930878 1080.894897,258.954559 
	C1081.590576,259.593994 1082.620605,259.869843 1083.730957,260.435303 
	C1091.460693,256.122070 1099.108765,251.537796 1107.030762,247.489639 
	C1138.040527,231.643677 1170.945923,223.734833 1205.840454,224.046188 
	C1228.857300,224.251587 1228.507690,223.708298 1244.871948,208.462128 
	C1262.840088,191.721634 1280.512207,174.424850 1302.386841,162.578964 
	C1340.264038,142.067230 1379.580078,139.579376 1419.761963,154.703323 
	C1444.243896,163.918030 1464.414062,179.359894 1480.427246,200.127670 
	C1481.424561,201.421143 1482.592285,202.583298 1484.292358,204.494064 
	C1495.281738,194.645065 1505.989136,184.917053 1516.839233,175.350769 
	C1542.430054,152.788010 1569.867676,132.966537 1602.028076,120.766731 
	C1629.681274,110.276649 1658.312012,105.955154 1688.006104,107.886047 
	C1750.507446,111.950294 1806.010742,134.624634 1856.859253,170.098801 
	C1862.542114,174.063477 1868.080322,178.235367 1873.702393,182.323242 
	C1886.073730,172.356384 1897.914673,162.253189 1910.336548,152.923676 
	C1938.280273,131.936600 1969.668213,120.794815 2004.875488,121.272789 
	C2031.416504,121.633102 2055.931152,128.990173 2078.638428,142.597305 
	C2080.304688,143.595749 2081.922852,144.674789 2083.842285,145.893616 
	C2096.940430,133.615479 2109.572021,121.370613 2122.648682,109.620964 
	C2138.208252,95.640129 2153.371338,81.035233 2170.118652,68.603783 
	C2192.218994,52.198780 2217.785400,44.911533 2245.559082,43.917000 
	C2310.307373,41.598480 2370.407227,86.526299 2385.869385,154.002655 
	C2389.639648,170.455353 2391.602783,187.321259 2395.346191,203.781265 
	C2401.892090,232.562683 2408.078857,261.497803 2416.376465,289.793549 
	C2433.207275,347.186218 2452.740967,403.721130 2473.891602,459.680786 
	C2474.242676,460.609833 2474.664795,461.512146 2475.264648,462.923218 
	C2493.809082,463.470886 2512.097656,466.858490 2529.220703,474.481995 
	C2577.562012,496.004852 2606.613037,532.696289 2614.294434,585.410645 
	C2619.732910,622.734863 2609.858643,656.378418 2588.530518,687.028870 
	C2584.179932,693.281250 2579.962158,699.626282 2575.454834,706.265015 
	C2590.595215,737.175964 2605.444580,767.994934 2620.744873,798.588501 
	C2635.759277,828.610962 2651.520752,858.260986 2666.441406,888.329163 
	C2693.172852,942.199890 2686.879883,993.075928 2651.278076,1040.784790 
	C2645.333984,1048.750000 2638.636230,1056.233765 2631.639893,1063.299683 
	C2628.054443,1066.920898 2627.447998,1070.322144 2628.359375,1074.859497 
	C2633.601074,1100.958130 2636.120850,1127.333496 2635.603271,1153.948120 
	C2635.416748,1163.544678 2634.454590,1173.126343 2633.771729,1183.635864 
M1943.608032,478.857025 
	C1942.956787,479.334106 1942.305420,479.811218 1940.525513,479.439240 
	C1939.186035,476.420715 1938.118164,473.243469 1936.462891,470.409424 
	C1925.888428,452.304260 1915.850830,433.839478 1904.395752,416.303589 
	C1873.037964,368.299896 1836.195312,325.023499 1790.735352,289.664856 
	C1767.749634,271.786652 1743.061035,256.742584 1714.544067,249.167084 
	C1700.057495,245.318695 1685.454224,241.759308 1670.274780,242.783707 
	C1650.757568,244.100861 1634.896973,253.797272 1620.196899,265.621979 
	C1592.880859,287.595032 1567.529785,311.694580 1543.966797,337.646637 
	C1534.295532,348.298462 1525.694092,359.860413 1520.231445,373.237061 
	C1506.296387,407.359985 1500.038940,442.793488 1503.336548,479.707397 
	C1503.599609,482.652039 1503.371216,485.640564 1503.371216,490.438446 
	C1495.001343,477.212402 1487.749512,465.700043 1480.443237,454.222351 
	C1472.932129,442.422699 1465.363525,430.659668 1457.827759,418.875671 
	C1450.472168,407.373108 1443.109985,395.874695 1435.780396,384.355438 
	C1428.450928,372.836426 1421.138062,361.306702 1413.855713,349.757843 
	C1406.395752,337.927216 1399.130371,325.971008 1391.504761,314.248627 
	C1384.178711,302.986877 1378.220337,290.808472 1369.580322,279.225922 
	C1341.211548,302.768463 1315.388062,327.196533 1289.935303,353.010864 
	C1294.223511,361.368073 1298.235718,369.187408 1302.828369,378.138245 
	C1300.054199,377.609283 1298.492065,377.432739 1297.000977,377.007294 
	C1287.728638,374.361664 1278.514160,371.504150 1269.202271,369.008148 
	C1246.303101,362.870148 1223.222534,357.858185 1199.265137,359.581055 
	C1183.245117,360.733093 1168.669556,365.682495 1156.358398,376.374329 
	C1151.326538,380.744354 1146.067139,384.873871 1141.259521,389.476624 
	C1119.624756,410.188599 1098.115234,431.031158 1076.166382,452.206970 
	C1073.841431,449.304260 1070.972412,445.721497 1068.102539,442.139557 
	C1043.674438,411.651031 1017.602905,382.707764 987.789429,357.330994 
	C963.523254,336.675873 937.292603,319.293671 906.614563,309.478882 
	C856.973022,293.597137 811.209106,298.809143 771.590637,335.074188 
	C748.986694,355.764862 726.588013,376.712006 704.864136,398.315125 
	C696.948975,406.186340 691.205750,416.255981 684.589844,425.408112 
	C683.129822,427.427887 682.171326,429.810242 681.336670,431.364777 
	C671.128296,427.985168 661.816589,424.347809 652.212036,421.824982 
	C621.415894,413.735809 589.710388,412.406586 558.173584,410.408875 
	C508.975800,407.292450 459.719269,405.114380 410.508423,402.188660 
	C376.581024,400.171600 342.830139,396.275574 309.448669,389.806152 
	C286.575500,385.373260 263.812286,380.306274 243.529037,367.924225 
	C237.337189,364.144379 232.047440,365.046631 226.358994,369.789520 
	C203.788132,388.608521 182.570572,408.799347 162.944962,430.659729 
	C160.809418,433.038391 159.182755,435.873932 156.555878,439.573914 
	C163.460434,444.054932 169.427582,448.152222 175.612442,451.889160 
	C185.002579,457.562775 194.998215,462.340118 203.941132,468.629395 
	C239.870087,493.896912 271.824249,523.594910 298.583740,558.436340 
	C342.543152,615.672607 378.170807,678.147522 411.776825,741.821472 
	C413.435547,744.964233 414.522491,748.408813 416.171173,752.434326 
	C411.505463,755.314209 407.021210,757.475342 403.241302,760.512878 
	C376.969116,781.625305 352.282257,804.474487 329.259216,829.097168 
	C327.829895,830.625793 327.107910,832.815857 325.803955,835.151001 
	C331.863190,837.762634 337.069397,836.429871 342.064575,835.025879 
	C351.025818,832.507019 359.820557,829.401489 368.756348,826.785217 
	C390.448090,820.434204 412.098663,813.914795 433.935364,808.099854 
	C443.353210,805.591919 443.735352,806.225647 447.455200,814.974731 
	C484.184509,901.361145 518.424561,988.677307 544.587341,1078.941406 
	C553.021973,1108.041748 560.742126,1137.309814 560.611755,1168.059692 
	C560.570618,1177.759888 564.045227,1187.010742 568.796631,1195.576172 
	C575.861694,1208.312744 578.786926,1209.094604 589.821655,1199.421265 
	C605.857483,1185.363892 621.827698,1171.192627 637.155273,1156.376099 
	C658.003357,1136.223267 658.008240,1141.004639 654.860840,1106.411255 
	C652.851196,1084.322754 648.179321,1062.283203 642.672913,1040.739990 
	C620.708130,954.804810 590.373779,871.761414 554.204102,790.816956 
	C553.139526,788.434570 552.256348,785.971191 551.082031,783.027710 
	C554.600952,781.925720 557.636963,780.715454 560.787292,780.033569 
	C573.791870,777.218628 586.805359,774.430664 599.868286,771.905518 
	C606.539246,770.615967 612.195862,768.297058 617.254150,763.259827 
	C630.708618,749.861267 644.822388,737.127075 658.564453,724.013855 
	C666.034851,716.885376 673.385254,709.622803 680.565063,702.203369 
	C682.627258,700.072327 683.906677,697.183716 686.609192,692.991821 
	C681.210266,692.484802 677.983032,691.676392 674.868469,691.989502 
	C667.265320,692.753540 659.641785,693.674011 652.154297,695.171021 
	C609.138367,703.771484 566.159668,712.558167 521.534180,721.613342 
	C509.757263,703.064148 501.248627,681.705750 490.146118,661.781189 
	C479.127930,642.008057 468.511597,622.005066 457.185883,602.411011 
	C445.691620,582.525330 433.964508,562.747620 421.566925,543.418152 
	C409.249664,524.213745 395.970947,505.626007 382.510742,485.883179 
	C386.153961,485.883179 388.730042,485.785614 391.296906,485.897949 
	C425.583405,487.398224 459.904358,488.384766 494.141846,490.637543 
	C517.710388,492.188324 541.240479,494.944672 564.644470,498.194275 
	C586.489502,501.227386 606.293823,509.585297 622.701660,524.922546 
	C629.181335,530.979431 634.435547,537.826599 635.757019,546.789551 
	C637.320190,557.391724 637.470154,567.994507 634.427063,578.494263 
	C627.797180,601.369629 618.441101,622.931152 604.430786,642.325623 
	C602.871521,644.484253 600.961426,646.552917 600.065002,648.977905 
	C599.267639,651.134705 598.698547,654.299255 599.720764,656.005249 
	C601.609924,659.158264 605.261902,659.765564 608.504517,657.729980 
	C611.295715,655.977722 613.844604,653.761841 616.251587,651.487366 
	C639.478149,629.539062 662.652039,607.535034 685.508911,585.861816 
	C704.114624,622.033752 723.248962,659.233398 742.488525,696.637634 
	C740.061401,698.707275 738.062561,700.420654 736.054321,702.122864 
	C724.996338,711.495850 723.663147,716.252014 731.893433,728.278992 
	C746.177917,749.152710 761.420105,769.368469 776.063477,790.000061 
	C785.491577,803.283875 795.641785,816.210571 803.625610,830.338623 
	C852.635864,917.066162 895.570801,1006.787598 933.870605,1098.723999 
	C939.876038,1113.139771 944.498596,1128.126099 950.073853,1142.729004 
	C952.278198,1148.502686 954.008728,1154.928345 961.978699,1158.079712 
	C987.290955,1134.702026 1012.920654,1111.031128 1039.109131,1086.844238 
	C1028.776489,1058.115967 1018.769531,1030.292725 1007.987366,1000.314270 
	C1013.093445,1003.237610 1016.320496,1004.841370 1019.289307,1006.830627 
	C1028.142090,1012.762390 1036.899292,1018.837158 1045.683838,1024.870728 
	C1100.366821,1062.428833 1157.201904,1096.363525 1216.738037,1125.653320 
	C1229.530640,1131.946777 1243.026855,1136.817261 1256.233643,1142.259033 
	C1262.088989,1144.671631 1267.105225,1143.447388 1271.684082,1138.897095 
	C1292.250000,1118.459961 1312.978271,1098.186401 1333.557373,1077.762573 
	C1336.003418,1075.334961 1337.893921,1072.347534 1340.699463,1068.784546 
	C1333.952148,1065.670044 1328.609253,1063.047974 1323.141724,1060.718262 
	C1315.805908,1057.592407 1308.176270,1055.100098 1301.014282,1051.630981 
	C1246.130737,1025.045532 1193.251953,994.906738 1142.360352,961.307556 
	C1136.094116,957.170532 1130.299683,952.319092 1123.957764,947.551575 
	C1128.277344,943.533875 1131.773071,940.444397 1135.088257,937.171997 
	C1152.628784,919.857544 1170.645264,902.985413 1187.480957,885.008545 
	C1202.845581,868.602600 1212.525146,848.793579 1214.688110,826.172241 
	C1216.110840,811.293396 1217.002930,796.230042 1216.409546,781.317871 
	C1214.809814,741.115112 1205.496826,702.302856 1193.282227,664.121765 
	C1192.534302,661.783508 1192.117554,659.339294 1191.249023,655.696350 
	C1233.377808,676.234985 1277.119263,683.569336 1323.638916,685.658447 
	C1320.827637,690.119873 1318.977051,693.160645 1317.026733,696.136047 
	C1288.867554,739.098083 1264.445312,784.162109 1243.115723,830.820129 
	C1235.554932,847.359375 1229.888306,864.946411 1225.108398,882.531189 
	C1218.479004,906.919556 1224.641724,928.508423 1242.830811,946.598206 
	C1251.651855,955.371033 1261.030518,963.249084 1272.153564,968.823486 
	C1281.362427,973.438538 1290.560181,978.196899 1300.133057,981.946106 
	C1399.645508,1020.919556 1500.824219,1054.760010 1604.913452,1079.390381 
	C1634.457642,1086.381348 1664.241699,1091.877808 1694.908325,1086.536133 
	C1699.784668,1085.686768 1703.514038,1084.181763 1707.037476,1080.797729 
	C1729.388916,1059.330811 1751.733887,1037.851929 1774.432861,1016.755554 
	C1781.679443,1010.020630 1783.174683,1002.642334 1779.097046,994.333862 
	C1775.006714,985.999573 1770.552734,977.701843 1765.157471,970.177368 
	C1750.406982,949.605774 1735.486084,929.129761 1719.894165,909.193481 
	C1683.311279,862.417847 1648.834351,814.305298 1621.321045,761.475769 
	C1607.485474,734.909546 1592.881958,708.743835 1578.964355,682.219421 
	C1571.393311,667.790161 1564.188477,653.144470 1557.457031,638.306702 
	C1552.053345,626.395752 1550.070557,625.563538 1539.701538,633.746155 
	C1537.871582,635.190247 1536.060181,636.676208 1534.379883,638.288452 
	C1518.990845,653.053589 1503.564087,667.780334 1488.310303,682.684143 
	C1484.031006,686.865112 1480.371460,691.673279 1476.270508,696.046326 
	C1473.127319,699.397949 1472.711670,702.964661 1474.552979,707.029053 
	C1476.749023,711.877197 1478.628052,716.883850 1481.059204,721.608337 
	C1501.614624,761.553650 1522.204956,801.481262 1542.904175,841.352173 
	C1561.064697,876.332764 1582.828979,908.999756 1606.687988,940.326111 
	C1618.192139,955.430847 1629.401367,970.760742 1640.688599,986.029541 
	C1641.880371,987.641541 1642.697998,989.530029 1644.217896,992.229248 
	C1641.262573,991.680908 1639.611328,991.531006 1638.055908,991.062927 
	C1601.449219,980.045654 1564.519775,969.977295 1528.334229,957.714783 
	C1476.084717,940.008728 1424.216309,921.133545 1372.540649,901.807129 
	C1358.355469,896.502014 1344.679199,888.929993 1332.104248,880.424744 
	C1309.627686,865.222717 1304.352417,842.264404 1308.762817,816.968506 
	C1310.683838,805.950134 1314.800537,795.163391 1319.042114,784.727478 
	C1336.012817,742.973511 1357.774414,703.646667 1381.711182,665.572021 
	C1388.009033,655.554565 1396.919922,647.147888 1404.864624,638.209351 
	C1409.948120,632.489746 1415.690063,627.349854 1420.692383,621.565552 
	C1423.609619,618.192261 1428.276489,614.570007 1425.944458,609.511353 
	C1423.595459,604.415527 1417.828613,605.621521 1413.364868,605.779785 
	C1389.588623,606.623108 1366.147339,603.675659 1342.786499,599.875610 
	C1313.420532,595.098816 1284.858643,587.489807 1258.314941,573.695862 
	C1209.721191,548.442932 1177.890625,509.118622 1161.475464,457.091187 
	C1159.805176,451.797516 1157.775635,446.393921 1160.831909,440.169800 
	C1166.427124,441.154602 1172.030029,441.775818 1177.442261,443.148682 
	C1246.047241,460.551575 1309.033447,489.697388 1364.754761,533.695557 
	C1388.287109,552.276978 1411.363525,571.435425 1434.708862,590.254944 
	C1438.522461,593.329163 1442.657227,596.005127 1447.543823,599.511047 
	C1470.440063,578.879761 1492.827148,558.707214 1515.482300,538.293091 
	C1516.892090,541.824280 1518.120972,544.905029 1519.351929,547.984802 
	C1545.715942,613.942139 1585.999268,668.998230 1645.254395,709.331177 
	C1678.616211,732.039490 1713.812012,751.576660 1749.531616,770.204834 
	C1797.631226,795.289185 1845.753418,820.314697 1891.275513,849.971252 
	C1918.105713,867.450562 1944.194702,885.910339 1967.571777,907.930298 
	C1980.710693,920.306396 1992.891846,933.487915 2002.149170,949.141235 
	C2009.744995,961.985046 2013.931641,975.737305 2014.121460,991.343201 
	C2009.536133,991.735413 2005.248413,991.890930 2001.025635,992.497986 
	C1975.316284,996.193909 1952.041870,989.595093 1931.109985,974.985901 
	C1921.048340,967.963501 1911.647095,959.834412 1902.704956,951.402466 
	C1884.478394,934.215942 1868.507935,914.989868 1853.642212,894.829285 
	C1848.358643,887.663818 1843.101929,880.372498 1834.939941,874.944214 
	C1807.690796,897.241272 1783.508179,922.415649 1757.872803,946.987183 
	C1761.032227,952.267273 1763.531738,957.353271 1766.846924,961.835999 
	C1786.313354,988.158142 1808.007812,1012.533691 1831.883667,1034.935669 
	C1843.120117,1045.478394 1855.450928,1054.635986 1869.614746,1060.829712 
	C1910.201904,1078.578003 1950.569214,1078.808716 1987.497925,1053.017578 
	C2023.631958,1027.781494 2055.189453,996.870117 2084.438232,963.865356 
	C2096.013428,950.803589 2099.681396,934.570740 2098.728027,917.334412 
	C2097.772461,900.063232 2090.196777,885.328125 2080.411621,871.608154 
	C2066.013916,851.421082 2049.103760,833.515442 2029.939209,817.800537 
	C2000.547485,793.699707 1970.192139,770.945190 1937.043091,752.138245 
	C1932.834229,749.750366 1928.953613,746.783752 1922.539795,742.491760 
	C1926.698730,739.558716 1929.727539,737.924377 1932.142090,735.640503 
	C1952.719116,716.176819 1973.093872,696.498108 1993.766357,677.137085 
	C1997.552979,673.590820 1999.202026,670.242554 1998.311035,665.018738 
	C1996.802246,656.170837 1996.724487,647.030457 1994.690308,638.329773 
	C1988.863647,613.407227 1982.357056,588.643677 1976.455200,562.568909 
	C1976.906616,561.087952 1977.358154,559.606995 1978.428345,559.411926 
	C1992.871582,590.468811 2007.314819,621.525635 2022.029785,653.166687 
	C2012.595337,669.147583 2002.925415,685.443054 1993.354614,701.796631 
	C1990.838013,706.096497 1988.462524,710.497375 1986.328125,714.997070 
	C1984.505249,718.839905 1985.384766,722.558594 1989.287964,724.335083 
	C1994.366821,726.646423 1999.672485,729.064331 2005.110107,729.852783 
	C2015.631592,731.378418 2026.310547,731.833496 2036.929688,732.664001 
	C2049.022949,733.609741 2051.975830,736.091187 2054.031006,747.939514 
	C2055.111084,754.166382 2055.576904,760.498657 2056.620850,766.733093 
	C2058.861328,780.112610 2064.781738,782.425415 2075.514404,774.335571 
	C2077.775391,772.631287 2080.194580,771.136719 2082.962158,769.259644 
	C2085.662354,773.869934 2087.971680,777.499695 2089.980225,781.289001 
	C2121.799072,841.320068 2155.833008,900.075562 2192.321777,957.377930 
	C2208.590576,982.926758 2225.773193,1007.898804 2242.814453,1032.946411 
	C2246.842773,1038.866943 2251.974609,1044.036743 2257.323975,1050.416748 
	C2286.563965,1027.940796 2311.068604,1002.379822 2336.009277,977.425110 
	C2333.007812,972.812683 2330.614502,969.206238 2328.291504,965.555115 
	C2294.335449,912.183044 2260.108398,858.980286 2226.578125,805.341797 
	C2213.180908,783.910034 2201.247559,761.558289 2188.839844,739.517029 
	C2186.514648,735.386230 2185.101074,730.742004 2182.820312,725.261902 
	C2228.193604,719.793030 2271.976562,714.515808 2315.559814,709.262695 
	C2316.782959,711.869446 2317.546631,713.341309 2318.179443,714.867493 
	C2347.641113,785.886292 2380.052734,855.569214 2413.934570,924.558777 
	C2429.033936,955.303711 2445.364258,985.447021 2461.365967,1015.741821 
	C2463.440186,1019.668884 2466.898682,1022.864868 2470.288086,1027.117065 
	C2499.251221,1004.651550 2524.887207,980.704041 2547.175293,954.445618 
	C2524.907471,909.736206 2503.014648,866.390747 2481.680176,822.772339 
	C2460.255859,778.971130 2438.537109,735.287415 2420.232422,692.291565 
	C2426.399658,684.656372 2431.613525,679.094971 2435.806396,672.848328 
	C2450.090820,651.566711 2464.031006,630.053955 2478.066406,608.605713 
	C2481.615723,603.181763 2480.384277,599.938721 2474.201904,598.502502 
	C2472.281250,598.056396 2470.203613,597.891174 2468.243164,598.077698 
	C2458.328125,599.021240 2448.346436,599.637085 2438.542969,601.289001 
	C2425.433105,603.498108 2412.488770,606.670959 2399.429688,609.205444 
	C2390.314697,610.974487 2388.835205,610.210632 2384.510498,601.780518 
	C2382.085693,597.054016 2379.981934,592.144409 2378.008057,587.207581 
	C2344.778320,504.098450 2314.156006,420.053345 2288.327393,334.329163 
	C2277.196045,297.384644 2266.674561,260.247070 2260.903564,221.966827 
	C2259.317139,211.441910 2257.632324,200.920456 2255.532471,190.490128 
	C2254.738281,186.545761 2252.643555,182.863251 2250.526855,177.505936 
	C2245.504150,181.350754 2241.676270,183.821075 2238.388184,186.873001 
	C2218.117676,205.687531 2198.140869,224.822754 2177.653076,243.395508 
	C2172.828857,247.768997 2171.728516,252.033356 2172.235352,258.147217 
	C2174.776123,288.801056 2181.321777,318.665344 2189.214600,348.288391 
	C2213.306396,438.709808 2244.103271,526.920715 2276.995117,614.440674 
	C2278.116699,617.424805 2279.120850,620.453125 2280.149414,623.374878 
	C2265.265869,629.718262 2154.083496,638.509399 2132.203613,635.178772 
	C2130.831299,629.991394 2129.159912,624.607422 2127.994385,619.116089 
	C2119.913330,581.036865 2112.475830,542.812195 2103.800293,504.870178 
	C2091.113525,449.387573 2076.403809,394.426971 2055.885010,341.230377 
	C2045.569946,314.487762 2034.150635,288.241913 2015.566284,265.853943 
	C2006.118286,254.472305 2001.828247,253.810898 1989.663940,262.456207 
	C1989.120972,262.842010 1988.596802,263.255463 1988.076782,263.672119 
	C1964.868774,282.260101 1943.420898,302.650818 1924.062134,325.266815 
	C1918.285034,332.015961 1915.320190,339.444916 1915.981812,348.123413 
	C1917.118896,363.037262 1917.989014,378.015717 1920.129150,392.799438 
	C1924.376099,422.138397 1934.254639,449.980988 1943.608032,478.857025 
M1449.299316,1878.303101 
	C1463.081299,1865.320679 1476.863281,1852.338257 1491.117310,1838.911133 
	C1488.881226,1834.881348 1487.519775,1830.987915 1484.986328,1828.135254 
	C1477.747681,1819.984253 1474.701416,1810.395874 1473.978394,1799.841553 
	C1472.066284,1771.933960 1470.165527,1744.025269 1468.375977,1716.109497 
	C1468.069336,1711.326050 1468.332642,1706.506226 1468.332642,1701.703125 
	C1550.111206,1791.403198 1643.973022,1864.354248 1746.519653,1925.686768 
	C1748.638184,1924.593506 1749.700806,1924.319824 1750.380005,1923.654663 
	C1773.460083,1901.054810 1796.522095,1878.436401 1819.505737,1855.738770 
	C1820.857422,1854.404053 1822.143921,1852.483521 1822.427490,1850.673706 
	C1823.955933,1840.917480 1826.608521,1830.804199 1815.931152,1823.880127 
	C1814.331421,1822.842651 1813.287354,1820.906860 1812.076294,1819.317993 
	C1794.581909,1796.367554 1781.146606,1771.320312 1771.825806,1743.930664 
	C1756.147095,1697.857300 1745.651978,1650.422363 1733.885376,1603.308594 
	C1719.136475,1544.252563 1704.739014,1485.087769 1684.344604,1427.617432 
	C1684.001587,1426.651001 1684.301636,1425.456421 1684.301636,1424.025879 
	C1685.402100,1424.711304 1686.070801,1424.942505 1686.473267,1425.405029 
	C1723.456299,1467.912598 1758.480591,1511.981079 1791.549438,1557.597168 
	C1794.207520,1561.263916 1796.144409,1565.453491 1797.952271,1568.593872 
	C1795.102051,1572.537109 1792.307495,1575.114502 1791.085327,1578.296143 
	C1780.238647,1606.533569 1769.631348,1634.863770 1759.092529,1663.218140 
	C1758.248047,1665.489990 1758.440674,1668.147339 1758.163818,1670.516846 
	C1767.694458,1672.675781 1768.946777,1672.074951 1779.185303,1668.439453 
	C1798.284424,1661.657837 1817.550049,1655.336670 1836.823120,1649.059448 
	C1840.808472,1647.761597 1845.128906,1647.492065 1849.452515,1646.720337 
	C1852.726440,1651.920410 1855.850220,1656.257812 1858.337524,1660.934082 
	C1874.433960,1691.195435 1890.645630,1721.400024 1906.310181,1751.885010 
	C1917.866089,1774.374023 1928.549316,1797.310059 1939.854248,1819.930542 
	C1942.304443,1824.833008 1944.317383,1830.375244 1950.988525,1833.677734 
	C1979.786865,1813.002075 2005.232666,1788.512817 2028.317139,1761.278687 
	C2005.824219,1714.905029 1983.807495,1669.513184 1960.994629,1622.480225 
	C1999.481934,1617.141968 2036.642090,1613.341187 2074.674561,1613.916992 
	C2077.228760,1620.474609 2079.788086,1626.566284 2081.994141,1632.783325 
	C2102.188232,1689.696533 2126.537354,1744.699463 2157.856445,1796.429199 
	C2168.023682,1813.222656 2178.925293,1829.582642 2189.848633,1845.901245 
	C2193.675049,1851.617554 2197.849365,1857.386108 2204.406494,1860.288818 
	C2216.660156,1852.418213 2275.573242,1797.438843 2281.743408,1788.232422 
	C2274.601074,1778.229858 2266.794189,1768.654053 2260.481445,1758.177734 
	C2246.741211,1735.374512 2233.418213,1712.301636 2220.588623,1688.973755 
	C2211.455811,1672.367432 2203.388184,1655.174561 2194.880615,1638.225586 
	C2190.498291,1629.495605 2190.212158,1621.195923 2193.887207,1611.541382 
	C2203.582275,1586.070679 2211.938232,1560.089966 2220.796875,1534.301880 
	C2221.443604,1532.419678 2221.732178,1530.414307 2222.383301,1528.533936 
	C2224.015625,1523.819702 2221.530762,1521.399048 2217.473877,1520.602295 
	C2211.607666,1519.449951 2205.646729,1518.661377 2199.690186,1518.107910 
	C2183.481934,1516.602295 2167.254639,1515.301514 2149.891846,1513.822144 
	C2144.931641,1487.922974 2140.008301,1462.216797 2135.202881,1437.125000 
	C2140.220947,1433.284058 2144.441650,1430.590210 2148.027832,1427.220947 
	C2169.152100,1407.375000 2190.111572,1387.353638 2211.174561,1367.441895 
	C2214.210205,1364.572144 2217.502930,1361.973755 2220.931152,1359.031006 
	C2256.108643,1406.858154 2291.972900,1452.718262 2331.420654,1494.723755 
	C2322.362549,1525.042114 2313.172607,1554.232300 2304.950195,1583.692505 
	C2292.544189,1628.141846 2284.406982,1673.270752 2286.528320,1719.724243 
	C2287.410400,1739.037354 2288.163818,1758.522217 2294.361084,1776.962280 
	C2303.522949,1804.223389 2317.067139,1829.464233 2333.026611,1853.352539 
	C2335.885254,1857.631836 2340.033447,1861.049561 2344.290771,1865.621460 
	C2369.966064,1840.269653 2397.310547,1818.462524 2419.230469,1790.908813 
	C2417.722900,1787.923218 2416.595459,1785.555786 2415.352295,1783.251221 
	C2408.558350,1770.655640 2401.655273,1758.118286 2394.940674,1745.480835 
	C2381.686035,1720.535034 2372.682373,1694.482178 2371.049316,1665.841187 
	C2369.234131,1634.008301 2372.017090,1602.633911 2377.108154,1571.340942 
	C2378.260742,1564.255859 2380.079590,1557.279053 2381.838867,1549.104614 
	C2385.461914,1552.390259 2387.927979,1554.567627 2390.329590,1556.813843 
	C2412.720703,1577.756104 2434.862549,1598.971924 2457.534180,1619.605835 
	C2502.689453,1660.702759 2551.562256,1697.229736 2600.095459,1734.129517 
	C2629.785156,1756.702515 2660.113525,1778.439575 2690.313477,1800.333496 
	C2698.456787,1806.236938 2699.169434,1806.360229 2706.577393,1799.595093 
	C2728.959229,1779.155396 2750.966797,1758.306152 2773.084229,1737.578003 
	C2773.761475,1736.943237 2774.042236,1735.885620 2774.789062,1734.505127 
	C2770.280029,1730.635132 2765.855957,1726.612915 2761.199463,1722.880493 
	C2740.922119,1706.626343 2720.818604,1690.141724 2700.208740,1674.317993 
	C2648.145508,1634.344727 2595.847412,1594.681030 2545.986816,1551.932007 
	C2503.173828,1515.225342 2462.652100,1476.187744 2424.783447,1434.369751 
	C2420.043945,1429.136108 2419.336182,1424.942871 2421.728516,1418.536743 
	C2429.987305,1396.421509 2437.441162,1374.006714 2445.591064,1351.849365 
	C2462.010010,1307.211304 2479.025391,1262.793823 2490.846191,1216.605957 
	C2500.560059,1178.650757 2503.267822,1140.502441 2495.979248,1101.797241 
	C2492.400635,1082.792969 2484.887207,1066.413940 2467.960449,1055.650879 
	C2467.271240,1055.903687 2466.510986,1055.965088 2466.076172,1056.373413 
	C2443.731689,1077.358276 2421.367920,1098.322998 2399.154785,1119.446289 
	C2396.372803,1122.091797 2394.403320,1125.591675 2391.734863,1129.122559 
	C2404.404785,1142.713867 2410.791992,1158.554688 2413.952148,1175.905273 
	C2417.206787,1193.774902 2417.236816,1211.804810 2415.408203,1229.705078 
	C2410.537842,1277.386353 2397.060547,1322.945801 2379.900391,1367.505493 
	C2378.747559,1370.498413 2377.089844,1373.296753 2375.044434,1377.449829 
	C2369.491455,1370.967896 2364.654053,1365.536011 2360.049316,1359.913696 
	C2297.887207,1284.013916 2242.460205,1203.321777 2190.305664,1120.344727 
	C2177.561035,1100.068359 2166.325684,1078.847656 2154.171143,1058.193726 
	C2151.226074,1053.189331 2147.386963,1048.711182 2143.747559,1043.699829 
	C2140.548584,1046.191162 2138.324707,1047.673584 2136.390381,1049.468140 
	C2118.558838,1066.013916 2100.711182,1082.543579 2083.026611,1099.245605 
	C2078.437500,1103.579590 2074.376221,1108.476685 2070.123291,1113.161499 
	C2066.365479,1117.301392 2065.643799,1121.519653 2068.630859,1126.738647 
	C2074.082764,1136.264038 2078.994873,1146.099976 2084.069336,1155.838989 
	C2085.024170,1157.671143 2085.685059,1159.656128 2087.054199,1162.946655 
	C2065.709717,1155.503174 2045.029297,1154.625488 2024.535156,1156.782837 
	C1987.807617,1160.649048 1951.094116,1165.070557 1914.617432,1170.803223 
	C1854.788330,1180.205688 1795.357666,1192.139893 1734.818726,1196.739502 
	C1701.544312,1199.267578 1668.295898,1200.984619 1635.033447,1197.595581 
	C1613.453003,1195.396729 1592.127808,1191.760132 1573.218628,1179.917969 
	C1571.865845,1179.070801 1570.215088,1178.699219 1568.148071,1177.889038 
	C1562.245361,1183.140869 1556.391113,1188.349365 1550.450684,1193.634766 
	C1539.952637,1184.914673 1529.871460,1176.748291 1520.027222,1168.305786 
	C1510.051514,1159.750488 1500.310059,1150.922363 1490.088623,1141.879639 
	C1468.566895,1162.648315 1447.286987,1182.343140 1427.016968,1203.027588 
	C1412.508545,1217.832642 1413.274658,1218.542358 1428.071411,1232.188721 
	C1442.517700,1245.511719 1457.406128,1258.384277 1472.531006,1270.935791 
	C1492.005859,1287.097168 1507.441650,1306.531494 1520.906616,1327.758667 
	C1556.419067,1383.743286 1582.909302,1443.945923 1604.049438,1506.570312 
	C1627.277344,1575.379150 1643.453857,1646.101929 1659.965820,1716.716919 
	C1661.502686,1723.289062 1662.732788,1729.933105 1664.588257,1738.870483 
	C1659.923950,1734.888184 1657.028687,1732.696045 1654.455078,1730.175537 
	C1628.505859,1704.761963 1602.031250,1679.852783 1576.808594,1653.735352 
	C1507.380371,1581.843994 1450.261597,1501.125610 1404.711914,1412.099243 
	C1391.994019,1387.242310 1377.499634,1363.265015 1363.149170,1339.285889 
	C1356.675171,1328.467773 1348.729126,1318.502930 1341.090576,1308.423950 
	C1338.387451,1304.857178 1334.614502,1302.100952 1331.284058,1298.931030 
	C1329.281250,1300.174927 1328.025879,1300.691406 1327.107910,1301.563232 
	C1305.371094,1322.208740 1283.608643,1342.828491 1262.034302,1363.642822 
	C1259.021729,1366.549438 1256.964722,1370.446411 1254.458374,1373.894531 
	C1256.069214,1376.525635 1257.213867,1378.520142 1258.475586,1380.437866 
	C1281.915405,1416.066284 1303.868164,1452.554321 1323.052979,1490.685791 
	C1341.376221,1527.105103 1356.010254,1564.792847 1364.616333,1604.772217 
	C1372.283569,1640.389771 1375.319946,1676.528442 1377.891968,1712.744019 
	C1378.154419,1716.439453 1377.927124,1720.169556 1377.927124,1723.883545 
	C1377.257202,1724.177490 1376.587158,1724.471558 1375.917236,1724.765503 
	C1374.545166,1722.926514 1373.349121,1720.919189 1371.775879,1719.272461 
	C1284.400024,1627.820923 1214.643921,1524.658447 1164.996948,1408.143066 
	C1143.092041,1356.734863 1127.411255,1303.645996 1121.583374,1247.844971 
	C1120.185547,1234.460449 1117.576782,1221.202148 1115.299072,1206.420044 
	C1111.370850,1208.896484 1108.677002,1210.139893 1106.535522,1212.014282 
	C1082.972534,1232.639526 1059.447876,1253.309570 1036.098755,1274.175781 
	C1034.486450,1275.616577 1033.556519,1278.766602 1033.693359,1281.038330 
	C1034.072876,1287.337524 1035.047729,1293.614014 1036.029541,1299.861328 
	C1040.266357,1326.820557 1043.651733,1353.957153 1049.089844,1380.674438 
	C1058.571045,1427.254517 1077.007812,1470.884155 1096.753906,1513.826294 
	C1123.287109,1571.528809 1158.436768,1624.100708 1194.749878,1676.025757 
	C1254.602295,1761.610474 1330.915527,1831.910645 1404.646362,1904.659424 
	C1408.171509,1908.137695 1412.016846,1909.133545 1416.327881,1906.335571 
	C1419.668091,1904.167725 1423.106812,1902.056763 1426.086914,1899.446777 
	C1433.605469,1892.861694 1440.889526,1886.009033 1449.299316,1878.303101 
z"/>
<path fill="#FDFEFE" opacity="1.000000" stroke="none" 
	d="
M1976.117798,563.817627 
	C1982.357056,588.643677 1988.863647,613.407227 1994.690308,638.329773 
	C1996.724487,647.030457 1996.802246,656.170837 1998.311035,665.018738 
	C1999.202026,670.242554 1997.552979,673.590820 1993.766357,677.137085 
	C1973.093872,696.498108 1952.719116,716.176819 1932.142090,735.640503 
	C1929.727539,737.924377 1926.698730,739.558716 1922.539795,742.491760 
	C1928.953613,746.783752 1932.834229,749.750366 1937.043091,752.138245 
	C1970.192139,770.945190 2000.547485,793.699707 2029.939209,817.800537 
	C2049.103760,833.515442 2066.013916,851.421082 2080.411621,871.608154 
	C2090.196777,885.328125 2097.772461,900.063232 2098.728027,917.334412 
	C2099.681396,934.570740 2096.013428,950.803589 2084.438232,963.865356 
	C2055.189453,996.870117 2023.631958,1027.781494 1987.497925,1053.017578 
	C1950.569214,1078.808716 1910.201904,1078.578003 1869.614746,1060.829712 
	C1855.450928,1054.635986 1843.120117,1045.478394 1831.883667,1034.935669 
	C1808.007812,1012.533691 1786.313354,988.158142 1766.846924,961.835999 
	C1763.531738,957.353271 1761.032227,952.267273 1757.872803,946.987183 
	C1783.508179,922.415649 1807.690796,897.241272 1834.939941,874.944214 
	C1843.101929,880.372498 1848.358643,887.663818 1853.642212,894.829285 
	C1868.507935,914.989868 1884.478394,934.215942 1902.704956,951.402466 
	C1911.647095,959.834412 1921.048340,967.963501 1931.109985,974.985901 
	C1952.041870,989.595093 1975.316284,996.193909 2001.025635,992.497986 
	C2005.248413,991.890930 2009.536133,991.735413 2014.121460,991.343201 
	C2013.931641,975.737305 2009.744995,961.985046 2002.149170,949.141235 
	C1992.891846,933.487915 1980.710693,920.306396 1967.571777,907.930298 
	C1944.194702,885.910339 1918.105713,867.450562 1891.275513,849.971252 
	C1845.753418,820.314697 1797.631226,795.289185 1749.531616,770.204834 
	C1713.812012,751.576660 1678.616211,732.039490 1645.254395,709.331177 
	C1585.999268,668.998230 1545.715942,613.942139 1519.351929,547.984802 
	C1518.120972,544.905029 1516.892090,541.824280 1515.482300,538.293091 
	C1492.827148,558.707214 1470.440063,578.879761 1447.543823,599.511047 
	C1442.657227,596.005127 1438.522461,593.329163 1434.708862,590.254944 
	C1411.363525,571.435425 1388.287109,552.276978 1364.754761,533.695557 
	C1309.033447,489.697388 1246.047241,460.551575 1177.442261,443.148682 
	C1172.030029,441.775818 1166.427124,441.154602 1160.831909,440.169800 
	C1157.775635,446.393921 1159.805176,451.797516 1161.475464,457.091187 
	C1177.890625,509.118622 1209.721191,548.442932 1258.314941,573.695862 
	C1284.858643,587.489807 1313.420532,595.098816 1342.786499,599.875610 
	C1366.147339,603.675659 1389.588623,606.623108 1413.364868,605.779785 
	C1417.828613,605.621521 1423.595459,604.415527 1425.944458,609.511353 
	C1428.276489,614.570007 1423.609619,618.192261 1420.692383,621.565552 
	C1415.690063,627.349854 1409.948120,632.489746 1404.864624,638.209351 
	C1396.919922,647.147888 1388.009033,655.554565 1381.711182,665.572021 
	C1357.774414,703.646667 1336.012817,742.973511 1319.042114,784.727478 
	C1314.800537,795.163391 1310.683838,805.950134 1308.762817,816.968506 
	C1304.352417,842.264404 1309.627686,865.222717 1332.104248,880.424744 
	C1344.679199,888.929993 1358.355469,896.502014 1372.540649,901.807129 
	C1424.216309,921.133545 1476.084717,940.008728 1528.334229,957.714783 
	C1564.519775,969.977295 1601.449219,980.045654 1638.055908,991.062927 
	C1639.611328,991.531006 1641.262573,991.680908 1644.217896,992.229248 
	C1642.697998,989.530029 1641.880371,987.641541 1640.688599,986.029541 
	C1629.401367,970.760742 1618.192139,955.430847 1606.687988,940.326111 
	C1582.828979,908.999756 1561.064697,876.332764 1542.904175,841.352173 
	C1522.204956,801.481262 1501.614624,761.553650 1481.059204,721.608337 
	C1478.628052,716.883850 1476.749023,711.877197 1474.552979,707.029053 
	C1472.711670,702.964661 1473.127319,699.397949 1476.270508,696.046326 
	C1480.371460,691.673279 1484.031006,686.865112 1488.310303,682.684143 
	C1503.564087,667.780334 1518.990845,653.053589 1534.379883,638.288452 
	C1536.060181,636.676208 1537.871582,635.190247 1539.701538,633.746155 
	C1550.070557,625.563538 1552.053345,626.395752 1557.457031,638.306702 
	C1564.188477,653.144470 1571.393311,667.790161 1578.964355,682.219421 
	C1592.881958,708.743835 1607.485474,734.909546 1621.321045,761.475769 
	C1648.834351,814.305298 1683.311279,862.417847 1719.894165,909.193481 
	C1735.486084,929.129761 1750.406982,949.605774 1765.157471,970.177368 
	C1770.552734,977.701843 1775.006714,985.999573 1779.097046,994.333862 
	C1783.174683,1002.642334 1781.679443,1010.020630 1774.432861,1016.755554 
	C1751.733887,1037.851929 1729.388916,1059.330811 1707.037476,1080.797729 
	C1703.514038,1084.181763 1699.784668,1085.686768 1694.908325,1086.536133 
	C1664.241699,1091.877808 1634.457642,1086.381348 1604.913452,1079.390381 
	C1500.824219,1054.760010 1399.645508,1020.919556 1300.133057,981.946106 
	C1290.560181,978.196899 1281.362427,973.438538 1272.153564,968.823486 
	C1261.030518,963.249084 1251.651855,955.371033 1242.830811,946.598206 
	C1224.641724,928.508423 1218.479004,906.919556 1225.108398,882.531189 
	C1229.888306,864.946411 1235.554932,847.359375 1243.115723,830.820129 
	C1264.445312,784.162109 1288.867554,739.098083 1317.026733,696.136047 
	C1318.977051,693.160645 1320.827637,690.119873 1323.638916,685.658447 
	C1277.119263,683.569336 1233.377808,676.234985 1191.249023,655.696350 
	C1192.117554,659.339294 1192.534302,661.783508 1193.282227,664.121765 
	C1205.496826,702.302856 1214.809814,741.115112 1216.409546,781.317871 
	C1217.002930,796.230042 1216.110840,811.293396 1214.688110,826.172241 
	C1212.525146,848.793579 1202.845581,868.602600 1187.480957,885.008545 
	C1170.645264,902.985413 1152.628784,919.857544 1135.088257,937.171997 
	C1131.773071,940.444397 1128.277344,943.533875 1123.957764,947.551575 
	C1130.299683,952.319092 1136.094116,957.170532 1142.360352,961.307556 
	C1193.251953,994.906738 1246.130737,1025.045532 1301.014282,1051.630981 
	C1308.176270,1055.100098 1315.805908,1057.592407 1323.141724,1060.718262 
	C1328.609253,1063.047974 1333.952148,1065.670044 1340.699463,1068.784546 
	C1337.893921,1072.347534 1336.003418,1075.334961 1333.557373,1077.762573 
	C1312.978271,1098.186401 1292.250000,1118.459961 1271.684082,1138.897095 
	C1267.105225,1143.447388 1262.088989,1144.671631 1256.233643,1142.259033 
	C1243.026855,1136.817261 1229.530640,1131.946777 1216.738037,1125.653320 
	C1157.201904,1096.363525 1100.366821,1062.428833 1045.683838,1024.870728 
	C1036.899292,1018.837158 1028.142090,1012.762390 1019.289307,1006.830627 
	C1016.320496,1004.841370 1013.093445,1003.237610 1007.987366,1000.314270 
	C1018.769531,1030.292725 1028.776489,1058.115967 1039.109131,1086.844238 
	C1012.920654,1111.031128 987.290955,1134.702026 961.978699,1158.079712 
	C954.008728,1154.928345 952.278198,1148.502686 950.073853,1142.729004 
	C944.498596,1128.126099 939.876038,1113.139771 933.870605,1098.723999 
	C895.570801,1006.787598 852.635864,917.066162 803.625610,830.338623 
	C795.641785,816.210571 785.491577,803.283875 776.063477,790.000061 
	C761.420105,769.368469 746.177917,749.152710 731.893433,728.278992 
	C723.663147,716.252014 724.996338,711.495850 736.054321,702.122864 
	C738.062561,700.420654 740.061401,698.707275 742.488525,696.637634 
	C723.248962,659.233398 704.114624,622.033752 685.508911,585.861816 
	C662.652039,607.535034 639.478149,629.539062 616.251587,651.487366 
	C613.844604,653.761841 611.295715,655.977722 608.504517,657.729980 
	C605.261902,659.765564 601.609924,659.158264 599.720764,656.005249 
	C598.698547,654.299255 599.267639,651.134705 600.065002,648.977905 
	C600.961426,646.552917 602.871521,644.484253 604.430786,642.325623 
	C618.441101,622.931152 627.797180,601.369629 634.427063,578.494263 
	C637.470154,567.994507 637.320190,557.391724 635.757019,546.789551 
	C634.435547,537.826599 629.181335,530.979431 622.701660,524.922546 
	C606.293823,509.585297 586.489502,501.227386 564.644470,498.194275 
	C541.240479,494.944672 517.710388,492.188324 494.141846,490.637543 
	C459.904358,488.384766 425.583405,487.398224 391.296906,485.897949 
	C388.730042,485.785614 386.153961,485.883179 382.510742,485.883179 
	C395.970947,505.626007 409.249664,524.213745 421.566925,543.418152 
	C433.964508,562.747620 445.691620,582.525330 457.185883,602.411011 
	C468.511597,622.005066 479.127930,642.008057 490.146118,661.781189 
	C501.248627,681.705750 509.757263,703.064148 521.534180,721.613342 
	C566.159668,712.558167 609.138367,703.771484 652.154297,695.171021 
	C659.641785,693.674011 667.265320,692.753540 674.868469,691.989502 
	C677.983032,691.676392 681.210266,692.484802 686.609192,692.991821 
	C683.906677,697.183716 682.627258,700.072327 680.565063,702.203369 
	C673.385254,709.622803 666.034851,716.885376 658.564453,724.013855 
	C644.822388,737.127075 630.708618,749.861267 617.254150,763.259827 
	C612.195862,768.297058 606.539246,770.615967 599.868286,771.905518 
	C586.805359,774.430664 573.791870,777.218628 560.787292,780.033569 
	C557.636963,780.715454 554.600952,781.925720 551.082031,783.027710 
	C552.256348,785.971191 553.139526,788.434570 554.204102,790.816956 
	C590.373779,871.761414 620.708130,954.804810 642.672913,1040.739990 
	C648.179321,1062.283203 652.851196,1084.322754 654.860840,1106.411255 
	C658.008240,1141.004639 658.003357,1136.223267 637.155273,1156.376099 
	C621.827698,1171.192627 605.857483,1185.363892 589.821655,1199.421265 
	C578.786926,1209.094604 575.861694,1208.312744 568.796631,1195.576172 
	C564.045227,1187.010742 560.570618,1177.759888 560.611755,1168.059692 
	C560.742126,1137.309814 553.021973,1108.041748 544.587341,1078.941406 
	C518.424561,988.677307 484.184509,901.361145 447.455200,814.974731 
	C443.735352,806.225647 443.353210,805.591919 433.935364,808.099854 
	C412.098663,813.914795 390.448090,820.434204 368.756348,826.785217 
	C359.820557,829.401489 351.025818,832.507019 342.064575,835.025879 
	C337.069397,836.429871 331.863190,837.762634 325.803955,835.151001 
	C327.107910,832.815857 327.829895,830.625793 329.259216,829.097168 
	C352.282257,804.474487 376.969116,781.625305 403.241302,760.512878 
	C407.021210,757.475342 411.505463,755.314209 416.171173,752.434326 
	C414.522491,748.408813 413.435547,744.964233 411.776825,741.821472 
	C378.170807,678.147522 342.543152,615.672607 298.583740,558.436340 
	C271.824249,523.594910 239.870087,493.896912 203.941132,468.629395 
	C194.998215,462.340118 185.002579,457.562775 175.612442,451.889160 
	C169.427582,448.152222 163.460434,444.054932 156.555878,439.573914 
	C159.182755,435.873932 160.809418,433.038391 162.944962,430.659729 
	C182.570572,408.799347 203.788132,388.608521 226.358994,369.789520 
	C232.047440,365.046631 237.337189,364.144379 243.529037,367.924225 
	C263.812286,380.306274 286.575500,385.373260 309.448669,389.806152 
	C342.830139,396.275574 376.581024,400.171600 410.508423,402.188660 
	C459.719269,405.114380 508.975800,407.292450 558.173584,410.408875 
	C589.710388,412.406586 621.415894,413.735809 652.212036,421.824982 
	C661.816589,424.347809 671.128296,427.985168 681.336670,431.364777 
	C682.171326,429.810242 683.129822,427.427887 684.589844,425.408112 
	C691.205750,416.255981 696.948975,406.186340 704.864136,398.315125 
	C726.588013,376.712006 748.986694,355.764862 771.590637,335.074188 
	C811.209106,298.809143 856.973022,293.597137 906.614563,309.478882 
	C937.292603,319.293671 963.523254,336.675873 987.789429,357.330994 
	C1017.602905,382.707764 1043.674438,411.651031 1068.102539,442.139557 
	C1070.972412,445.721497 1073.841431,449.304260 1076.166382,452.206970 
	C1098.115234,431.031158 1119.624756,410.188599 1141.259521,389.476624 
	C1146.067139,384.873871 1151.326538,380.744354 1156.358398,376.374329 
	C1168.669556,365.682495 1183.245117,360.733093 1199.265137,359.581055 
	C1223.222534,357.858185 1246.303101,362.870148 1269.202271,369.008148 
	C1278.514160,371.504150 1287.728638,374.361664 1297.000977,377.007294 
	C1298.492065,377.432739 1300.054199,377.609283 1302.828369,378.138245 
	C1298.235718,369.187408 1294.223511,361.368073 1289.935303,353.010864 
	C1315.388062,327.196533 1341.211548,302.768463 1369.580322,279.225922 
	C1378.220337,290.808472 1384.178711,302.986877 1391.504761,314.248627 
	C1399.130371,325.971008 1406.395752,337.927216 1413.855713,349.757843 
	C1421.138062,361.306702 1428.450928,372.836426 1435.780396,384.355438 
	C1443.109985,395.874695 1450.472168,407.373108 1457.827759,418.875671 
	C1465.363525,430.659668 1472.932129,442.422699 1480.443237,454.222351 
	C1487.749512,465.700043 1495.001343,477.212402 1503.371216,490.438446 
	C1503.371216,485.640564 1503.599609,482.652039 1503.336548,479.707397 
	C1500.038940,442.793488 1506.296387,407.359985 1520.231445,373.237061 
	C1525.694092,359.860413 1534.295532,348.298462 1543.966797,337.646637 
	C1567.529785,311.694580 1592.880859,287.595032 1620.196899,265.621979 
	C1634.896973,253.797272 1650.757568,244.100861 1670.274780,242.783707 
	C1685.454224,241.759308 1700.057495,245.318695 1714.544067,249.167084 
	C1743.061035,256.742584 1767.749634,271.786652 1790.735352,289.664856 
	C1836.195312,325.023499 1873.037964,368.299896 1904.395752,416.303589 
	C1915.850830,433.839478 1925.888428,452.304260 1936.462891,470.409424 
	C1938.118164,473.243469 1939.186035,476.420715 1941.200928,480.573425 
	C1945.392578,489.052460 1948.908936,496.397308 1952.593994,504.436035 
	C1956.496094,513.433044 1960.229492,521.736084 1964.049683,530.786255 
	C1968.130249,542.294739 1972.124023,553.056152 1976.117798,563.817627 
M988.529907,512.484802 
	C968.224243,487.256531 946.248474,463.613434 921.535522,442.629059 
	C899.134705,423.608002 875.653870,406.183014 848.018005,395.276794 
	C823.343689,385.539337 798.180847,378.543854 771.202942,381.897827 
	C763.301636,382.880127 762.936523,383.536987 761.458618,391.604523 
	C758.796570,406.136200 762.077576,420.150085 765.054993,434.058014 
	C775.670410,483.643188 792.240784,531.370178 811.442200,578.204407 
	C824.066956,608.997375 837.141724,639.619995 856.589600,666.942017 
	C892.025391,716.725403 931.489746,763.087708 975.455750,805.544006 
	C1000.651672,829.874695 1027.235352,852.550293 1057.210327,870.940979 
	C1072.575684,880.368164 1088.569092,888.495667 1106.131104,892.960022 
	C1113.409302,894.810120 1120.916870,895.757935 1129.312256,897.298096 
	C1130.332275,891.082092 1131.421265,886.302673 1131.861938,881.464294 
	C1135.136719,845.518799 1129.967285,810.375366 1121.010864,775.714539 
	C1095.995605,678.906799 1051.048340,592.051819 988.529907,512.484802 
M1596.081909,456.704987 
	C1597.186279,460.878815 1598.064941,465.128052 1599.430420,469.214661 
	C1611.356812,504.908508 1629.834717,537.165405 1652.370972,567.034912 
	C1678.436401,601.581970 1711.836670,628.271606 1749.070312,649.444336 
	C1801.932129,679.503906 1855.906372,707.607117 1909.423950,736.511780 
	C1910.783569,737.246033 1912.361084,737.576660 1914.846069,738.450256 
	C1914.416748,733.661987 1914.253784,729.722595 1913.686768,725.842224 
	C1905.950684,672.904297 1891.861328,621.768494 1869.869873,572.924072 
	C1837.071289,500.076050 1792.994263,435.337708 1731.946533,383.054962 
	C1707.621338,362.222168 1681.786377,343.558197 1651.766235,331.383301 
	C1634.780762,324.494751 1617.290161,322.128571 1598.562378,323.377747 
	C1595.064087,336.328278 1591.359253,349.038605 1588.290527,361.900696 
	C1587.069214,367.019714 1586.674316,372.499481 1586.899658,377.772430 
	C1588.008667,403.733398 1590.656006,429.539368 1596.081909,456.704987 
z"/>
<path fill="#FDFEFE" opacity="1.000000" stroke="none" 
	d="
M1448.783447,1878.783447 
	C1440.889526,1886.009033 1433.605469,1892.861694 1426.086914,1899.446777 
	C1423.106812,1902.056763 1419.668091,1904.167725 1416.327881,1906.335571 
	C1412.016846,1909.133545 1408.171509,1908.137695 1404.646362,1904.659424 
	C1330.915527,1831.910645 1254.602295,1761.610474 1194.749878,1676.025757 
	C1158.436768,1624.100708 1123.287109,1571.528809 1096.753906,1513.826294 
	C1077.007812,1470.884155 1058.571045,1427.254517 1049.089844,1380.674438 
	C1043.651733,1353.957153 1040.266357,1326.820557 1036.029541,1299.861328 
	C1035.047729,1293.614014 1034.072876,1287.337524 1033.693359,1281.038330 
	C1033.556519,1278.766602 1034.486450,1275.616577 1036.098755,1274.175781 
	C1059.447876,1253.309570 1082.972534,1232.639526 1106.535522,1212.014282 
	C1108.677002,1210.139893 1111.370850,1208.896484 1115.299072,1206.420044 
	C1117.576782,1221.202148 1120.185547,1234.460449 1121.583374,1247.844971 
	C1127.411255,1303.645996 1143.092041,1356.734863 1164.996948,1408.143066 
	C1214.643921,1524.658447 1284.400024,1627.820923 1371.775879,1719.272461 
	C1373.349121,1720.919189 1374.545166,1722.926514 1375.917236,1724.765503 
	C1376.587158,1724.471558 1377.257202,1724.177490 1377.927124,1723.883545 
	C1377.927124,1720.169556 1378.154419,1716.439453 1377.891968,1712.744019 
	C1375.319946,1676.528442 1372.283569,1640.389771 1364.616333,1604.772217 
	C1356.010254,1564.792847 1341.376221,1527.105103 1323.052979,1490.685791 
	C1303.868164,1452.554321 1281.915405,1416.066284 1258.475586,1380.437866 
	C1257.213867,1378.520142 1256.069214,1376.525635 1254.458374,1373.894531 
	C1256.964722,1370.446411 1259.021729,1366.549438 1262.034302,1363.642822 
	C1283.608643,1342.828491 1305.371094,1322.208740 1327.107910,1301.563232 
	C1328.025879,1300.691406 1329.281250,1300.174927 1331.284058,1298.931030 
	C1334.614502,1302.100952 1338.387451,1304.857178 1341.090576,1308.423950 
	C1348.729126,1318.502930 1356.675171,1328.467773 1363.149170,1339.285889 
	C1377.499634,1363.265015 1391.994019,1387.242310 1404.711914,1412.099243 
	C1450.261597,1501.125610 1507.380371,1581.843994 1576.808594,1653.735352 
	C1602.031250,1679.852783 1628.505859,1704.761963 1654.455078,1730.175537 
	C1657.028687,1732.696045 1659.923950,1734.888184 1664.588257,1738.870483 
	C1662.732788,1729.933105 1661.502686,1723.289062 1659.965820,1716.716919 
	C1643.453857,1646.101929 1627.277344,1575.379150 1604.049438,1506.570312 
	C1582.909302,1443.945923 1556.419067,1383.743286 1520.906616,1327.758667 
	C1507.441650,1306.531494 1492.005859,1287.097168 1472.531006,1270.935791 
	C1457.406128,1258.384277 1442.517700,1245.511719 1428.071411,1232.188721 
	C1413.274658,1218.542358 1412.508545,1217.832642 1427.016968,1203.027588 
	C1447.286987,1182.343140 1468.566895,1162.648315 1490.088623,1141.879639 
	C1500.310059,1150.922363 1510.051514,1159.750488 1520.027222,1168.305786 
	C1529.871460,1176.748291 1539.952637,1184.914673 1550.450684,1193.634766 
	C1556.391113,1188.349365 1562.245361,1183.140869 1568.148071,1177.889038 
	C1570.215088,1178.699219 1571.865845,1179.070801 1573.218628,1179.917969 
	C1592.127808,1191.760132 1613.453003,1195.396729 1635.033447,1197.595581 
	C1668.295898,1200.984619 1701.544312,1199.267578 1734.818726,1196.739502 
	C1795.357666,1192.139893 1854.788330,1180.205688 1914.617432,1170.803223 
	C1951.094116,1165.070557 1987.807617,1160.649048 2024.535156,1156.782837 
	C2045.029297,1154.625488 2065.709717,1155.503174 2087.054199,1162.946655 
	C2085.685059,1159.656128 2085.024170,1157.671143 2084.069336,1155.838989 
	C2078.994873,1146.099976 2074.082764,1136.264038 2068.630859,1126.738647 
	C2065.643799,1121.519653 2066.365479,1117.301392 2070.123291,1113.161499 
	C2074.376221,1108.476685 2078.437500,1103.579590 2083.026611,1099.245605 
	C2100.711182,1082.543579 2118.558838,1066.013916 2136.390381,1049.468140 
	C2138.324707,1047.673584 2140.548584,1046.191162 2143.747559,1043.699829 
	C2147.386963,1048.711182 2151.226074,1053.189331 2154.171143,1058.193726 
	C2166.325684,1078.847656 2177.561035,1100.068359 2190.305664,1120.344727 
	C2242.460205,1203.321777 2297.887207,1284.013916 2360.049316,1359.913696 
	C2364.654053,1365.536011 2369.491455,1370.967896 2375.044434,1377.449829 
	C2377.089844,1373.296753 2378.747559,1370.498413 2379.900391,1367.505493 
	C2397.060547,1322.945801 2410.537842,1277.386353 2415.408203,1229.705078 
	C2417.236816,1211.804810 2417.206787,1193.774902 2413.952148,1175.905273 
	C2410.791992,1158.554688 2404.404785,1142.713867 2391.734863,1129.122559 
	C2394.403320,1125.591675 2396.372803,1122.091797 2399.154785,1119.446289 
	C2421.367920,1098.322998 2443.731689,1077.358276 2466.076172,1056.373413 
	C2466.510986,1055.965088 2467.271240,1055.903687 2467.960449,1055.650879 
	C2484.887207,1066.413940 2492.400635,1082.792969 2495.979248,1101.797241 
	C2503.267822,1140.502441 2500.560059,1178.650757 2490.846191,1216.605957 
	C2479.025391,1262.793823 2462.010010,1307.211304 2445.591064,1351.849365 
	C2437.441162,1374.006714 2429.987305,1396.421509 2421.728516,1418.536743 
	C2419.336182,1424.942871 2420.043945,1429.136108 2424.783447,1434.369751 
	C2462.652100,1476.187744 2503.173828,1515.225342 2545.986816,1551.932007 
	C2595.847412,1594.681030 2648.145508,1634.344727 2700.208740,1674.317993 
	C2720.818604,1690.141724 2740.922119,1706.626343 2761.199463,1722.880493 
	C2765.855957,1726.612915 2770.280029,1730.635132 2774.789062,1734.505127 
	C2774.042236,1735.885620 2773.761475,1736.943237 2773.084229,1737.578003 
	C2750.966797,1758.306152 2728.959229,1779.155396 2706.577393,1799.595093 
	C2699.169434,1806.360229 2698.456787,1806.236938 2690.313477,1800.333496 
	C2660.113525,1778.439575 2629.785156,1756.702515 2600.095459,1734.129517 
	C2551.562256,1697.229736 2502.689453,1660.702759 2457.534180,1619.605835 
	C2434.862549,1598.971924 2412.720703,1577.756104 2390.329590,1556.813843 
	C2387.927979,1554.567627 2385.461914,1552.390259 2381.838867,1549.104614 
	C2380.079590,1557.279053 2378.260742,1564.255859 2377.108154,1571.340942 
	C2372.017090,1602.633911 2369.234131,1634.008301 2371.049316,1665.841187 
	C2372.682373,1694.482178 2381.686035,1720.535034 2394.940674,1745.480835 
	C2401.655273,1758.118286 2408.558350,1770.655640 2415.352295,1783.251221 
	C2416.595459,1785.555786 2417.722900,1787.923218 2419.230469,1790.908813 
	C2397.310547,1818.462524 2369.966064,1840.269653 2344.290771,1865.621460 
	C2340.033447,1861.049561 2335.885254,1857.631836 2333.026611,1853.352539 
	C2317.067139,1829.464233 2303.522949,1804.223389 2294.361084,1776.962280 
	C2288.163818,1758.522217 2287.410400,1739.037354 2286.528320,1719.724243 
	C2284.406982,1673.270752 2292.544189,1628.141846 2304.950195,1583.692505 
	C2313.172607,1554.232300 2322.362549,1525.042114 2331.420654,1494.723755 
	C2291.972900,1452.718262 2256.108643,1406.858154 2220.931152,1359.031006 
	C2217.502930,1361.973755 2214.210205,1364.572144 2211.174561,1367.441895 
	C2190.111572,1387.353638 2169.152100,1407.375000 2148.027832,1427.220947 
	C2144.441650,1430.590210 2140.220947,1433.284058 2135.202881,1437.125000 
	C2140.008301,1462.216797 2144.931641,1487.922974 2149.891846,1513.822144 
	C2167.254639,1515.301514 2183.481934,1516.602295 2199.690186,1518.107910 
	C2205.646729,1518.661377 2211.607666,1519.449951 2217.473877,1520.602295 
	C2221.530762,1521.399048 2224.015625,1523.819702 2222.383301,1528.533936 
	C2221.732178,1530.414307 2221.443604,1532.419678 2220.796875,1534.301880 
	C2211.938232,1560.089966 2203.582275,1586.070679 2193.887207,1611.541382 
	C2190.212158,1621.195923 2190.498291,1629.495605 2194.880615,1638.225586 
	C2203.388184,1655.174561 2211.455811,1672.367432 2220.588623,1688.973755 
	C2233.418213,1712.301636 2246.741211,1735.374512 2260.481445,1758.177734 
	C2266.794189,1768.654053 2274.601074,1778.229858 2281.743408,1788.232422 
	C2275.573242,1797.438843 2216.660156,1852.418213 2204.406494,1860.288818 
	C2197.849365,1857.386108 2193.675049,1851.617554 2189.848633,1845.901245 
	C2178.925293,1829.582642 2168.023682,1813.222656 2157.856445,1796.429199 
	C2126.537354,1744.699463 2102.188232,1689.696533 2081.994141,1632.783325 
	C2079.788086,1626.566284 2077.228760,1620.474609 2074.674561,1613.916992 
	C2036.642090,1613.341187 1999.481934,1617.141968 1960.994629,1622.480225 
	C1983.807495,1669.513184 2005.824219,1714.905029 2028.317139,1761.278687 
	C2005.232666,1788.512817 1979.786865,1813.002075 1950.988525,1833.677734 
	C1944.317383,1830.375244 1942.304443,1824.833008 1939.854248,1819.930542 
	C1928.549316,1797.310059 1917.866089,1774.374023 1906.310181,1751.885010 
	C1890.645630,1721.400024 1874.433960,1691.195435 1858.337524,1660.934082 
	C1855.850220,1656.257812 1852.726440,1651.920410 1849.452515,1646.720337 
	C1845.128906,1647.492065 1840.808472,1647.761597 1836.823120,1649.059448 
	C1817.550049,1655.336670 1798.284424,1661.657837 1779.185303,1668.439453 
	C1768.946777,1672.074951 1767.694458,1672.675781 1758.163818,1670.516846 
	C1758.440674,1668.147339 1758.248047,1665.489990 1759.092529,1663.218140 
	C1769.631348,1634.863770 1780.238647,1606.533569 1791.085327,1578.296143 
	C1792.307495,1575.114502 1795.102051,1572.537109 1797.952271,1568.593872 
	C1796.144409,1565.453491 1794.207520,1561.263916 1791.549438,1557.597168 
	C1758.480591,1511.981079 1723.456299,1467.912598 1686.473267,1425.405029 
	C1686.070801,1424.942505 1685.402100,1424.711304 1684.301636,1424.025879 
	C1684.301636,1425.456421 1684.001587,1426.651001 1684.344604,1427.617432 
	C1704.739014,1485.087769 1719.136475,1544.252563 1733.885376,1603.308594 
	C1745.651978,1650.422363 1756.147095,1697.857300 1771.825806,1743.930664 
	C1781.146606,1771.320312 1794.581909,1796.367554 1812.076294,1819.317993 
	C1813.287354,1820.906860 1814.331421,1822.842651 1815.931152,1823.880127 
	C1826.608521,1830.804199 1823.955933,1840.917480 1822.427490,1850.673706 
	C1822.143921,1852.483521 1820.857422,1854.404053 1819.505737,1855.738770 
	C1796.522095,1878.436401 1773.460083,1901.054810 1750.380005,1923.654663 
	C1749.700806,1924.319824 1748.638184,1924.593506 1746.519653,1925.686768 
	C1643.973022,1864.354248 1550.111206,1791.403198 1468.332642,1701.703125 
	C1468.332642,1706.506226 1468.069336,1711.326050 1468.375977,1716.109497 
	C1470.165527,1744.025269 1472.066284,1771.933960 1473.978394,1799.841553 
	C1474.701416,1810.395874 1477.747681,1819.984253 1484.986328,1828.135254 
	C1487.519775,1830.987915 1488.881226,1834.881348 1491.117310,1838.911133 
	C1476.863281,1852.338257 1463.081299,1865.320679 1448.783447,1878.783447 
M1892.597046,1512.392822 
	C1895.785278,1517.065063 1899.438599,1521.492798 1902.053101,1526.466553 
	C1905.998657,1533.972534 1911.893799,1535.691406 1919.546753,1533.988647 
	C1928.629150,1531.967773 1937.652832,1529.578247 1946.820190,1528.064697 
	C1972.732910,1523.786865 1998.705933,1519.873779 2024.655640,1515.819946 
	C2033.394775,1514.454590 2042.135254,1513.097900 2050.826416,1511.744873 
	C2050.618164,1508.224731 2050.503662,1505.905640 2050.340332,1503.589966 
	C2046.995605,1456.115356 2043.523560,1408.649292 2040.343018,1361.163696 
	C2038.585693,1334.926636 2037.370605,1308.653931 2035.808838,1282.403320 
	C2034.360107,1258.055054 2022.609619,1243.249390 1998.869507,1238.109863 
	C1989.650269,1236.114014 1979.744141,1236.672119 1970.186279,1237.025757 
	C1959.560669,1237.419067 1948.957153,1238.745972 1938.375977,1239.946533 
	C1906.305542,1243.586060 1874.148315,1246.652100 1842.215698,1251.263916 
	C1803.054443,1256.919434 1764.082153,1263.887451 1725.037598,1270.344971 
	C1716.100708,1271.823120 1707.202393,1273.534424 1696.594971,1275.442749 
	C1734.022583,1312.385864 1767.093384,1350.632324 1799.305786,1389.640259 
	C1831.751465,1428.930542 1862.652954,1469.397827 1892.597046,1512.392822 
M2125.904541,1262.113403 
	C2125.594727,1261.610229 2125.315918,1261.082520 2124.951172,1260.622803 
	C2124.870361,1260.520630 2124.275635,1260.647949 2124.273926,1260.686768 
	C2124.145996,1263.343384 2123.853516,1266.011963 2123.990234,1268.658203 
	C2126.073486,1308.897461 2128.094971,1349.140503 2130.424072,1389.365723 
	C2130.993896,1399.207275 2132.613525,1408.988037 2133.750488,1418.796753 
	C2139.571045,1408.178467 2141.360107,1397.057007 2141.995361,1385.738892 
	C2144.337158,1344.018799 2137.175293,1303.509277 2125.904541,1262.113403 
z"/>
<path fill="#FDFEFE" opacity="1.000000" stroke="none" 
	d="
M1944.230591,477.750000 
	C1934.254639,449.980988 1924.376099,422.138397 1920.129150,392.799438 
	C1917.989014,378.015717 1917.118896,363.037262 1915.981812,348.123413 
	C1915.320190,339.444916 1918.285034,332.015961 1924.062134,325.266815 
	C1943.420898,302.650818 1964.868774,282.260101 1988.076782,263.672119 
	C1988.596802,263.255463 1989.120972,262.842010 1989.663940,262.456207 
	C2001.828247,253.810898 2006.118286,254.472305 2015.566284,265.853943 
	C2034.150635,288.241913 2045.569946,314.487762 2055.885010,341.230377 
	C2076.403809,394.426971 2091.113525,449.387573 2103.800293,504.870178 
	C2112.475830,542.812195 2119.913330,581.036865 2127.994385,619.116089 
	C2129.159912,624.607422 2130.831299,629.991394 2132.203613,635.178772 
	C2154.083496,638.509399 2265.265869,629.718262 2280.149414,623.374878 
	C2279.120850,620.453125 2278.116699,617.424805 2276.995117,614.440674 
	C2244.103271,526.920715 2213.306396,438.709808 2189.214600,348.288391 
	C2181.321777,318.665344 2174.776123,288.801056 2172.235352,258.147217 
	C2171.728516,252.033356 2172.828857,247.768997 2177.653076,243.395508 
	C2198.140869,224.822754 2218.117676,205.687531 2238.388184,186.873001 
	C2241.676270,183.821075 2245.504150,181.350754 2250.526855,177.505936 
	C2252.643555,182.863251 2254.738281,186.545761 2255.532471,190.490128 
	C2257.632324,200.920456 2259.317139,211.441910 2260.903564,221.966827 
	C2266.674561,260.247070 2277.196045,297.384644 2288.327393,334.329163 
	C2314.156006,420.053345 2344.778320,504.098450 2378.008057,587.207581 
	C2379.981934,592.144409 2382.085693,597.054016 2384.510498,601.780518 
	C2388.835205,610.210632 2390.314697,610.974487 2399.429688,609.205444 
	C2412.488770,606.670959 2425.433105,603.498108 2438.542969,601.289001 
	C2448.346436,599.637085 2458.328125,599.021240 2468.243164,598.077698 
	C2470.203613,597.891174 2472.281250,598.056396 2474.201904,598.502502 
	C2480.384277,599.938721 2481.615723,603.181763 2478.066406,608.605713 
	C2464.031006,630.053955 2450.090820,651.566711 2435.806396,672.848328 
	C2431.613525,679.094971 2426.399658,684.656372 2420.232422,692.291565 
	C2438.537109,735.287415 2460.255859,778.971130 2481.680176,822.772339 
	C2503.014648,866.390747 2524.907471,909.736206 2547.175293,954.445618 
	C2524.887207,980.704041 2499.251221,1004.651550 2470.288086,1027.117065 
	C2466.898682,1022.864868 2463.440186,1019.668884 2461.365967,1015.741821 
	C2445.364258,985.447021 2429.033936,955.303711 2413.934570,924.558777 
	C2380.052734,855.569214 2347.641113,785.886292 2318.179443,714.867493 
	C2317.546631,713.341309 2316.782959,711.869446 2315.559814,709.262695 
	C2271.976562,714.515808 2228.193604,719.793030 2182.820312,725.261902 
	C2185.101074,730.742004 2186.514648,735.386230 2188.839844,739.517029 
	C2201.247559,761.558289 2213.180908,783.910034 2226.578125,805.341797 
	C2260.108398,858.980286 2294.335449,912.183044 2328.291504,965.555115 
	C2330.614502,969.206238 2333.007812,972.812683 2336.009277,977.425110 
	C2311.068604,1002.379822 2286.563965,1027.940796 2257.323975,1050.416748 
	C2251.974609,1044.036743 2246.842773,1038.866943 2242.814453,1032.946411 
	C2225.773193,1007.898804 2208.590576,982.926758 2192.321777,957.377930 
	C2155.833008,900.075562 2121.799072,841.320068 2089.980225,781.289001 
	C2087.971680,777.499695 2085.662354,773.869934 2082.962158,769.259644 
	C2080.194580,771.136719 2077.775391,772.631287 2075.514404,774.335571 
	C2064.781738,782.425415 2058.861328,780.112610 2056.620850,766.733093 
	C2055.576904,760.498657 2055.111084,754.166382 2054.031006,747.939514 
	C2051.975830,736.091187 2049.022949,733.609741 2036.929688,732.664001 
	C2026.310547,731.833496 2015.631592,731.378418 2005.110107,729.852783 
	C1999.672485,729.064331 1994.366821,726.646423 1989.287964,724.335083 
	C1985.384766,722.558594 1984.505249,718.839905 1986.328125,714.997070 
	C1988.462524,710.497375 1990.838013,706.096497 1993.354614,701.796631 
	C2002.925415,685.443054 2012.595337,669.147583 2022.029785,653.166687 
	C2007.314819,621.525635 1992.871582,590.468811 1978.132812,558.029663 
	C1973.705200,547.206848 1969.573120,537.766357 1965.289307,527.625244 
	C1961.483398,518.559753 1957.829102,510.195007 1954.052979,501.103790 
	C1950.697632,492.834869 1947.464111,485.292450 1944.230591,477.750000 
z"/>
<path fill="#585656" opacity="1.000000" stroke="none" 
	d="
M1965.440918,528.325928 
	C1969.573120,537.766357 1973.705200,547.206848 1977.823486,557.386658 
	C1977.358154,559.606995 1976.906616,561.087952 1976.286499,563.193237 
	C1972.124023,553.056152 1968.130249,542.294739 1964.282837,530.485840 
	C1964.666016,528.976257 1965.003296,528.605408 1965.440918,528.325928 
z"/>
<path fill="#525151" opacity="1.000000" stroke="none" 
	d="
M1943.919312,478.303528 
	C1947.464111,485.292450 1950.697632,492.834869 1953.807007,501.469604 
	C1953.423828,503.126129 1953.004639,503.519531 1952.425293,503.742126 
	C1948.908936,496.397308 1945.392578,489.052460 1941.765137,480.997955 
	C1942.305420,479.811218 1942.956787,479.334106 1943.919312,478.303528 
z"/>
<path fill="#010101" opacity="1.000000" stroke="none" 
	d="
M988.984863,513.035034 
	C1051.048340,592.051819 1095.995605,678.906799 1121.010864,775.714539 
	C1129.967285,810.375366 1135.136719,845.518799 1131.861938,881.464294 
	C1131.421265,886.302673 1130.332275,891.082092 1129.312256,897.298096 
	C1120.916870,895.757935 1113.409302,894.810120 1106.131104,892.960022 
	C1088.569092,888.495667 1072.575684,880.368164 1057.210327,870.940979 
	C1027.235352,852.550293 1000.651672,829.874695 975.455750,805.544006 
	C931.489746,763.087708 892.025391,716.725403 856.589600,666.942017 
	C837.141724,639.619995 824.066956,608.997375 811.442200,578.204407 
	C792.240784,531.370178 775.670410,483.643188 765.054993,434.058014 
	C762.077576,420.150085 758.796570,406.136200 761.458618,391.604523 
	C762.936523,383.536987 763.301636,382.880127 771.202942,381.897827 
	C798.180847,378.543854 823.343689,385.539337 848.018005,395.276794 
	C875.653870,406.183014 899.134705,423.608002 921.535522,442.629059 
	C946.248474,463.613434 968.224243,487.256531 988.984863,513.035034 
z"/>
<path fill="#010101" opacity="1.000000" stroke="none" 
	d="
M1595.957397,455.872925 
	C1590.656006,429.539368 1588.008667,403.733398 1586.899658,377.772430 
	C1586.674316,372.499481 1587.069214,367.019714 1588.290527,361.900696 
	C1591.359253,349.038605 1595.064087,336.328278 1598.562378,323.377747 
	C1617.290161,322.128571 1634.780762,324.494751 1651.766235,331.383301 
	C1681.786377,343.558197 1707.621338,362.222168 1731.946533,383.054962 
	C1792.994263,435.337708 1837.071289,500.076050 1869.869873,572.924072 
	C1891.861328,621.768494 1905.950684,672.904297 1913.686768,725.842224 
	C1914.253784,729.722595 1914.416748,733.661987 1914.846069,738.450256 
	C1912.361084,737.576660 1910.783569,737.246033 1909.423950,736.511780 
	C1855.906372,707.607117 1801.932129,679.503906 1749.070312,649.444336 
	C1711.836670,628.271606 1678.436401,601.581970 1652.370972,567.034912 
	C1629.834717,537.165405 1611.356812,504.908508 1599.430420,469.214661 
	C1598.064941,465.128052 1597.186279,460.878815 1595.957397,455.872925 
z"/>
<path fill="#8B8A8A" opacity="1.000000" stroke="none" 
	d="
M1952.593994,504.436035 
	C1953.004639,503.519531 1953.423828,503.126129 1953.928711,502.196106 
	C1957.829102,510.195007 1961.483398,518.559753 1965.289307,527.625244 
	C1965.003296,528.605408 1964.666016,528.976257 1964.196045,529.738770 
	C1960.229492,521.736084 1956.496094,513.433044 1952.593994,504.436035 
z"/>
<path fill="#010101" opacity="1.000000" stroke="none" 
	d="
M1892.205811,1511.790527 
	C1862.652954,1469.397827 1831.751465,1428.930542 1799.305786,1389.640259 
	C1767.093384,1350.632324 1734.022583,1312.385864 1696.594971,1275.442749 
	C1707.202393,1273.534424 1716.100708,1271.823120 1725.037598,1270.344971 
	C1764.082153,1263.887451 1803.054443,1256.919434 1842.215698,1251.263916 
	C1874.148315,1246.652100 1906.305542,1243.586060 1938.375977,1239.946533 
	C1948.957153,1238.745972 1959.560669,1237.419067 1970.186279,1237.025757 
	C1979.744141,1236.672119 1989.650269,1236.114014 1998.869507,1238.109863 
	C2022.609619,1243.249390 2034.360107,1258.055054 2035.808838,1282.403320 
	C2037.370605,1308.653931 2038.585693,1334.926636 2040.343018,1361.163696 
	C2043.523560,1408.649292 2046.995605,1456.115356 2050.340332,1503.589966 
	C2050.503662,1505.905640 2050.618164,1508.224731 2050.826416,1511.744873 
	C2042.135254,1513.097900 2033.394775,1514.454590 2024.655640,1515.819946 
	C1998.705933,1519.873779 1972.732910,1523.786865 1946.820190,1528.064697 
	C1937.652832,1529.578247 1928.629150,1531.967773 1919.546753,1533.988647 
	C1911.893799,1535.691406 1905.998657,1533.972534 1902.053101,1526.466553 
	C1899.438599,1521.492798 1895.785278,1517.065063 1892.205811,1511.790527 
z"/>
<path fill="#0F0F0F" opacity="1.000000" stroke="none" 
	d="
M2126.046631,1262.808105 
	C2137.175293,1303.509277 2144.337158,1344.018799 2141.995361,1385.738892 
	C2141.360107,1397.057007 2139.571045,1408.178467 2133.750488,1418.796753 
	C2132.613525,1408.988037 2130.993896,1399.207275 2130.424072,1389.365723 
	C2128.094971,1349.140503 2126.073486,1308.897461 2123.990234,1268.658203 
	C2123.853516,1266.011963 2124.145996,1263.343384 2124.273926,1260.686768 
	C2124.275635,1260.647949 2124.870361,1260.520630 2124.951172,1260.622803 
	C2125.315918,1261.082520 2125.594727,1261.610229 2126.046631,1262.808105 
z"/>
</svg>